<svg xmlns="http://www.w3.org/2000/svg" viewBox="0 0 44.01 35"><defs><style>.cls-1{fill:#f98a17;}</style></defs><g id="Layer_2" data-name="Layer 2"><g id="레이어_1" data-name="레이어 1"><g id="Card"><path id="Path_590" data-name="Path 590" class="cls-1" d="M40.1,0H3.91A3.89,3.89,0,0,0,0,3.85V7.11H44V3.85A3.88,3.88,0,0,0,40.1,0Z"/><path id="Path_591" data-name="Path 591" class="cls-1" d="M0,31.15A3.88,3.88,0,0,0,3.91,35H40.1A3.88,3.88,0,0,0,44,31.15v-17H0Zm22.3-5.77h4.35a1.8,1.8,0,0,1,0,3.6H22.31a1.8,1.8,0,1,1,0-3.6Zm-15.95,0h10a1.8,1.8,0,1,1,0,3.6h-10a1.8,1.8,0,0,1-.08-3.6Z"/></g></g></g></svg>