<svg xmlns="http://www.w3.org/2000/svg" viewBox="0 0 43.01 44"><defs><style>.cls-1{fill:#f98a17;}</style></defs><g id="Layer_2" data-name="Layer 2"><g id="레이어_1" data-name="레이어 1"><g id="Date_time" data-name="Date time"><path id="Path_944" data-name="Path 944" class="cls-1" d="M20.12,39.55c-16.78,0-15.89.34-15.88-.84C4.3,11.46,3.87,13.17,5,13.18c30.69.12,29.09-.49,29.09.85,0,1.64,0,3.29,0,4.93a13.53,13.53,0,0,1,4.25,1.35V9.36c0-3.1-1.88-4.94-4.63-5-3.65,0-3.95.29-3.91-.71s0-2,0-3c0-.47-.14-.66-.62-.64-2.95.08-3.57-.22-3.57.55,0,6.61.2,7-.59,7-2.31,0-1.93.34-1.93-3.14-6.37,0-8.88,0-10.31,0,0-1.27,0-2.47,0-3.68,0-1-.4-.57-3.66-.69-.44,0-.61.14-.65.48,0,.13,0,6.33,0,6.46,0,.76-.79.6-1.94.6C5.83,7.54,6,6.81,6,4.39l-1.51,0A4.36,4.36,0,0,0,0,8.64c0,.15,0,.3,0,.45V39.16c0,2.9,1.75,4.74,4.56,4.75h19A14.36,14.36,0,0,1,20.12,39.55Z"/><path id="Path_945" data-name="Path 945" class="cls-1" d="M32.13,22.23A10.89,10.89,0,1,0,43,33.12h0A10.89,10.89,0,0,0,32.13,22.23Zm4.29,10.39-3.48,2.23a1.38,1.38,0,0,1-.81.24,1.58,1.58,0,0,1-.71-.17,1.51,1.51,0,0,1-.78-1.32V27a1.5,1.5,0,0,1,3,0v3.83l1.16-.76a1.5,1.5,0,1,1,1.75,2.44Z"/></g></g></g></svg>