<svg xmlns="http://www.w3.org/2000/svg" viewBox="0 0 31.52 31.57"><defs><style>.cls-1{fill:#f98a17;}</style></defs><g id="Layer_2" data-name="Layer 2"><g id="레이어_1" data-name="레이어 1"><path id="Path_34" data-name="Path 34" class="cls-1" d="M29.57,17.67c-1-.6-.75-1.58-.84-2.79-.15-2.16,3.51-1.82,2.47-4.2S29.78,6.54,28.08,7c-1.14.31-2,.74-2.85-.12s-1.74-1.34-1.47-2.51c.7-3,.36-2.7-3.51-4.21-2.4-.95-1.93,2.69-4.09,2.62-1.2,0-2.19.29-2.82-.73-1.64-2.63-1.56-2.2-5.46-.5-1.41.61-1,1.76-.58,3.14.31,1.16-.58,1.65-1.38,2.57C4.5,8.89,2.16,6.07,1.21,8.48A26.1,26.1,0,0,0,0,11.86c-.06,1.5,1.27,1.38,2.26,2.31l0,0,.09.11h0l.05.06h0a1.55,1.55,0,0,1,.3,1h0V16h0c0,1,.16,1.6-.73,2.15H2c-2.54,1.59-2.22,1.53-.5,5.46,1,2.34,3.28-.52,4.75,1,.57.62,1.56,1.27,1.52,2.1v0c0,.65-.46,1.44-.36,2.22.12,1.28,1.9,1.64,3.82,2.39,2.41.94,1.94-2.69,4.1-2.62,2.5.07,2.15-.35,3.5,1.8,1,1.58,2.72.33,4.78-.57,2.34-1-.52-3.29,1-4.76.32-.3.63-.62.92-.95.78-.89,1.69-.5,2.83-.23,1.74.4,2-1.41,3-3.8C32,18.85,30.67,18.29,29.57,17.67ZM21,17.85a5.65,5.65,0,1,1-3.2-7.32h0A5.65,5.65,0,0,1,21,17.85Z"/></g></g></svg>