<svg xmlns="http://www.w3.org/2000/svg" viewBox="0 0 25.14 32.01"><defs><style>.cls-1{fill:#999;}</style></defs><g id="Layer_2" data-name="Layer 2"><g id="레이어_1" data-name="레이어 1"><path id="Path_862" data-name="Path 862" class="cls-1" d="M20.91,15.86c-2.78-.57-3.22,2.29-8.25,2.3S7.1,15.29,4.31,15.84a3.24,3.24,0,0,0-2.12,1.42C-.12,20.83-.62,24.43.77,27.4c2,4.15,8,4.45,10.53,4.57,4.33.22,11.09-.5,13.05-4.4h0c1.38-2.75.71-5.49-.23-8C23.43,17.63,22.62,16.21,20.91,15.86Z"/><path id="Path_863" data-name="Path 863" class="cls-1" d="M12.62,15.61A7.8,7.8,0,1,0,13,0h-.36a7.8,7.8,0,0,0,0,15.6Z"/></g></g></svg>