<svg xmlns="http://www.w3.org/2000/svg" viewBox="0 0 115.48 115.48"><defs><style>.cls-1{fill:#f98a17;}</style></defs><g id="Layer_2" data-name="Layer 2"><g id="레이어_1" data-name="레이어 1"><path id="Path_300" data-name="Path 300" class="cls-1" d="M97.81,0H17.65A17.67,17.67,0,0,0,0,17.67V97.81a17.66,17.66,0,0,0,17.65,17.67H97.81a17.67,17.67,0,0,0,17.67-17.67V17.67A17.68,17.68,0,0,0,97.81,0ZM86.28,62.39a3,3,0,0,1-3,3h-18V83.31a3,3,0,0,1-3,3H53.1a3,3,0,0,1-3-3V65.37H32.17a3,3,0,0,1-3-3h0V53.1a3,3,0,0,1,3-3H50.11v-18a3,3,0,0,1,3-3h9.29a3,3,0,0,1,3,3v18H83.29a3,3,0,0,1,3,3h0Z"/></g></g></svg>