<svg xmlns="http://www.w3.org/2000/svg" viewBox="0 0 115.48 115.48"><defs><style>.cls-1{fill:#999;}</style></defs><g id="Layer_2" data-name="Layer 2"><g id="레이어_1" data-name="레이어 1"><path id="Path_298" data-name="Path 298" class="cls-1" d="M97.81,0H17.65A17.67,17.67,0,0,0,0,17.67V97.81a17.66,17.66,0,0,0,17.65,17.67H97.81a17.67,17.67,0,0,0,17.67-17.67V17.67A17.68,17.68,0,0,0,97.81,0ZM86.64,45.25,53.08,78.77a4.9,4.9,0,0,1-6.92.07l-.07-.07L29.56,62.26a4.4,4.4,0,0,1,0-6.22l0,0,5.83-5.83c6.2-6.2,11.62,10.6,16,6.17l23.23-23.2a4.41,4.41,0,0,1,6.22,0L86.65,39a4.42,4.42,0,0,1,0,6.25Z"/></g></g></svg>