<svg xmlns="http://www.w3.org/2000/svg" viewBox="0 0 311.46 291.62"><defs><style>.cls-1{fill:#999;}</style></defs><g id="Layer_2" data-name="Layer 2"><g id="레이어_1" data-name="레이어 1"><path class="cls-1" d="M94.66,111.43a13,13,0,1,0,13,13A13,13,0,0,0,94.66,111.43Z"/><path class="cls-1" d="M155.73,111.43a13,13,0,1,0,13,13A13,13,0,0,0,155.73,111.43Z"/><path class="cls-1" d="M229.83,124.45a13,13,0,1,0-13,13A13,13,0,0,0,229.83,124.45Z"/><path class="cls-1" d="M299,0H12.5A12.5,12.5,0,0,0,0,12.5V233.55a12.5,12.5,0,0,0,12.5,12.5H95.94l50.77,42.65a12.5,12.5,0,0,0,15.89.15l53-42.8H299a12.5,12.5,0,0,0,12.5-12.5V12.5A12.5,12.5,0,0,0,299,0ZM154.9,262.93l-46.37-39a12.49,12.49,0,0,0-8-2.93H25V25H286.46V221.05H211.17a12.51,12.51,0,0,0-7.86,2.78Z"/></g></g></svg>