<svg xmlns="http://www.w3.org/2000/svg" viewBox="0 0 311.55 277.88"><defs><style>.cls-1{fill:#999;}</style></defs><g id="Layer_2" data-name="Layer 2"><g id="레이어_1" data-name="레이어 1"><path class="cls-1" d="M260.84,52.52H188.9L173.28,25.4A50.83,50.83,0,0,0,129.34,0H50.71A50.75,50.75,0,0,0,0,50.7V227.18a50.76,50.76,0,0,0,50.71,50.7H162.77l98.37-.57a50.84,50.84,0,0,0,50.41-50.71V103.24A50.77,50.77,0,0,0,260.84,52.52ZM286.55,226.6A25.77,25.77,0,0,1,261,252.31l-98.3.57h-112A25.73,25.73,0,0,1,25,227.18V50.7A25.73,25.73,0,0,1,50.71,25h78.63a25.75,25.75,0,0,1,22.27,12.87l19.23,33.39a12.5,12.5,0,0,0,10.83,6.26h79.17a25.74,25.74,0,0,1,25.71,25.72Z"/></g></g></svg>