<svg xmlns="http://www.w3.org/2000/svg" viewBox="0 0 306.2 311.41"><defs><style>.cls-1{fill:#999;}</style></defs><g id="Layer_2" data-name="Layer 2"><g id="레이어_1" data-name="레이어 1"><path class="cls-1" d="M259,161.22h-2.31l.15-56.46a104.51,104.51,0,1,0-209-.5s-.1,37-.15,57h-.22A47.28,47.28,0,0,0,13.73,175,46.39,46.39,0,0,0,0,208a47.36,47.36,0,0,0,47.23,47.46l45.8.11a60.23,60.23,0,0,0,120.11.28l45.6.11a47.39,47.39,0,0,0,.23-94.77ZM153.1,286.41a34.95,34.95,0,0,1-34.84-30.75l69.77.16A35.31,35.31,0,0,1,153.1,286.41ZM258.8,231l-211.51-.5A22.35,22.35,0,0,1,25,208.09a21.56,21.56,0,0,1,6.37-15.37,22.47,22.47,0,0,1,16-6.5H60.12a12.5,12.5,0,0,0,12.5-12.47l.18-69.43a79.51,79.51,0,1,1,159,.37l-.19,69a12.51,12.51,0,0,0,12.5,12.54h14.79A22.39,22.39,0,0,1,258.8,231Z"/></g></g></svg>