<svg xmlns="http://www.w3.org/2000/svg" viewBox="0 0 33.95 23.77"><defs><style>.cls-1{fill:#ffc23e;}.cls-2{fill:#ffa14d;}.cls-3{fill:#ff6c1a;}</style></defs><g id="Layer_2" data-name="Layer 2"><g id="레이어_1" data-name="레이어 1"><path class="cls-1" d="M26,23.76H17l1.57-8.94a4.34,4.34,0,0,1,.09-.52h0a7.75,7.75,0,1,1,7.79,9.46H26Z"/><path class="cls-2" d="M24.72,7.82a7.75,7.75,0,1,0-15.49,0,7.91,7.91,0,0,0,1,3.81h0L17,23.77l6.76-12.14h0A7.91,7.91,0,0,0,24.72,7.82Z"/><path class="cls-3" d="M7.92,23.76H17l-1.57-8.94-.09-.52h0A7.77,7.77,0,0,0,7.74,8.12a7.82,7.82,0,0,0-.22,15.64h.4Z"/></g></g></svg>