<svg xmlns="http://www.w3.org/2000/svg" width="11.97" height="15" viewBox="0 0 11.97 15">
  <defs>
    <style>
      .cls-1 {
        fill: #999;
        fill-rule: evenodd;
      }
    </style>
  </defs>
  <path id="_" data-name="" class="cls-1" d="M1752.83,927.4h1.5l-2.25,2.988-2.25-2.988h1.49v-3.762h1.51V927.4Zm5.03-5.784a0.773,0.773,0,0,1,.16.247,0.919,0.919,0,0,1,.05.281v10.494a0.715,0.715,0,0,1-.22.536,0.7,0.7,0,0,1-.52.22h-10.51a0.715,0.715,0,0,1-.52-0.22,0.755,0.755,0,0,1-.22-0.536v-13.5a0.738,0.738,0,0,1,.22-0.519,0.718,0.718,0,0,1,.52-0.219h7.51a0.792,0.792,0,0,1,.28.052,0.719,0.719,0,0,1,.25.159Zm-1.28,1.284h-3.01v-3.006h-5.99V931.9h9v-9Z" transform="translate(-1746.09 -918.406)"/>
</svg>
