<svg xmlns="http://www.w3.org/2000/svg" viewBox="0 0 310.1 312.21"><defs><style>.cls-1{fill:#666;}</style></defs><g id="Layer_2" data-name="Layer 2"><g id="레이어_1" data-name="레이어 1"><path class="cls-1" d="M310.1,156.12a18.65,18.65,0,0,0-6.34-14L235.65,67.23A18.75,18.75,0,1,0,207.9,92.45l40.83,44.92H127.54a18.75,18.75,0,0,0,0,37.5H248.72l-40.83,44.91A18.75,18.75,0,0,0,235.64,245l68.11-74.91A18.61,18.61,0,0,0,310.1,156.12Z"/><path class="cls-1" d="M160.36,274.71H37.5V37.5H160.36a18.75,18.75,0,0,0,0-37.5H18.75A18.76,18.76,0,0,0,0,18.75V293.46a18.76,18.76,0,0,0,18.75,18.75H160.36a18.75,18.75,0,0,0,0-37.5Z"/></g></g></svg>