<svg xmlns="http://www.w3.org/2000/svg" viewBox="0 0 311.55 313.04"><defs><style>.cls-1{fill:#999;}</style></defs><g id="Layer_2" data-name="Layer 2"><g id="레이어_1" data-name="레이어 1"><path class="cls-1" d="M260.85,0H50.71A50.76,50.76,0,0,0,0,50.7V212.86a50.77,50.77,0,0,0,50.71,50.71h42.2c10.52,12.39,23.64,31.55,23.79,31.77a13.1,13.1,0,0,0,1.14,1.44,50.7,50.7,0,0,0,73.74.72,13.78,13.78,0,0,0,1.16-1.39c.16-.23,14.45-20.12,25.44-32.54h42.67a50.77,50.77,0,0,0,50.7-50.71V50.7A50.76,50.76,0,0,0,260.85,0Zm25.7,212.86a25.73,25.73,0,0,1-25.7,25.71H212.7a12.46,12.46,0,0,0-9,3.83c-11.2,11.61-26.94,33.13-30.52,38.09a25.53,25.53,0,0,1-36.6-.36c-3.44-5-18-25.87-28.85-37.55a12.47,12.47,0,0,0-9.17-4H50.71A25.74,25.74,0,0,1,25,212.86V50.7A25.74,25.74,0,0,1,50.71,25H260.85a25.73,25.73,0,0,1,25.7,25.7Z"/><path class="cls-1" d="M221.33,85.06H90.22a12.5,12.5,0,0,0,0,25H221.33a12.5,12.5,0,0,0,0-25Z"/><path class="cls-1" d="M221.33,160H90.22a12.5,12.5,0,0,0,0,25H221.33a12.5,12.5,0,0,0,0-25Z"/></g></g></svg>