<svg xmlns="http://www.w3.org/2000/svg" viewBox="0 0 38 44"><defs><style>.cls-1{fill:#f98a17;}</style></defs><g id="Layer_2" data-name="Layer 2"><g id="레이어_1" data-name="레이어 1"><g id="Agency"><path id="Path_237" data-name="Path 237" class="cls-1" d="M24.5,4.43h-.3V1.66A1.63,1.63,0,0,0,22.6,0H3.88a1.64,1.64,0,0,0-1.6,1.66V4.43H1.6A1.63,1.63,0,0,0,0,6.09V42.34A1.63,1.63,0,0,0,1.6,44h8.54V34.87a1,1,0,0,1,1-1H15a1,1,0,0,1,1,1V44H26.1V6.09A1.62,1.62,0,0,0,24.5,4.43ZM19.43,28.18H6.62a1.67,1.67,0,0,1,0-3.33H19.43a1.67,1.67,0,0,1,0,3.33Zm0-7.43H6.62a1.67,1.67,0,0,1,0-3.33H19.43a1.67,1.67,0,0,1,0,3.33Zm0-7.43H6.62a1.67,1.67,0,0,1,0-3.33H19.43a1.67,1.67,0,0,1,0,3.33Z"/><path id="Path_238" data-name="Path 238" class="cls-1" d="M36.35,19h-.3V16.24a1.62,1.62,0,0,0-1.62-1.64h-6.5v9.83h3.26a1.64,1.64,0,0,1,0,3.28H27.93v4h3.26a1.64,1.64,0,0,1,0,3.28H27.93v9h8.43A1.64,1.64,0,0,0,38,42.36h0V20.6A1.64,1.64,0,0,0,36.36,19Z"/></g></g></g></svg>