<svg xmlns="http://www.w3.org/2000/svg" viewBox="0 0 43 43.99"><defs><style>.cls-1{fill:#999;}</style></defs><g id="Layer_2" data-name="Layer 2"><g id="레이어_1" data-name="레이어 1"><g id="Delete-2"><path id="Path_244" data-name="Path 244" class="cls-1" d="M4.12,8.87c-.8,0-1.49,0-2.18,0A1.82,1.82,0,0,1,0,7.18V7A1.81,1.81,0,0,1,1.78,5.16H12.26V3.24A3,3,0,0,1,15.06.05h.09a11.45,11.45,0,0,1,1.17,0H26.71a10,10,0,0,1,1.34.07A2.92,2.92,0,0,1,30.7,3.13v2H40.94a1.88,1.88,0,0,1,.36,3.74h-.13c-.72,0-1.44,0-2.25,0-.17,2.06-.34,4.05-.5,6-.61,7.66-1.21,15.31-1.85,23-.3,3.65-2.7,6-6.31,6q-8.75.09-17.51,0A6.13,6.13,0,0,1,6.41,38v-.1C5.76,30,5.16,22,4.54,14,4.4,12.36,4.27,10.68,4.12,8.87ZM28.57,24.43c.1-2.42.23-4.84.28-7.27a2.48,2.48,0,0,0-.4-1.4,1.57,1.57,0,0,0-1.87-.56,1.69,1.69,0,0,0-1.28,1.52c-.09,1.15-.13,2.31-.19,3.46q-.28,5.81-.56,11.59A1.91,1.91,0,0,0,26.14,34l.2,0a1.88,1.88,0,0,0,1.88-1.87.86.86,0,0,0,0-.16c.12-2.51.23-5,.35-7.53Zm-10.43.07h0q-.16-3.72-.34-7.44a1.89,1.89,0,0,0-1.77-2h-.13a2,2,0,0,0-1.77,2.13v0c0,.82.09,1.63.13,2.45.19,4.11.37,8.23.59,12.34.07,1.3.86,2,2,1.94a1.89,1.89,0,0,0,1.64-2.11s0,0,0-.06C18.36,29.35,18.24,26.93,18.14,24.5ZM16,3.76V5.13H27V3.76Z"/></g></g></g></svg>