<svg xmlns="http://www.w3.org/2000/svg" viewBox="0 0 44.02 42"><defs><style>.cls-1{fill:#f98a17;}</style></defs><g id="Layer_2" data-name="Layer 2"><g id="레이어_1" data-name="레이어 1"><g id="Stack"><path id="Path_610" data-name="Path 610" class="cls-1" d="M1.48,16,4.89,18,20,26.56a4.27,4.27,0,0,0,4.21,0l14.93-8.5,3.42-1.95a2.88,2.88,0,0,0,0-5L24,.56a4.24,4.24,0,0,0-4.22,0L1.48,11a2.89,2.89,0,0,0,0,5Z"/><path id="Path_611" data-name="Path 611" class="cls-1" d="M42.54,26,39.13,24,24.2,32.54a4.29,4.29,0,0,1-4.22,0L4.9,24,1.48,25.89a2.89,2.89,0,0,0,0,5L20,41.45a4.29,4.29,0,0,0,4.22,0L42.54,31a2.88,2.88,0,0,0,1.11-3.92A2.82,2.82,0,0,0,42.54,26Z"/></g></g></g></svg>