<svg xmlns="http://www.w3.org/2000/svg" viewBox="0 0 311.44 255.25"><defs><style>.cls-1{fill:#333;}</style></defs><g id="Layer_2" data-name="Layer 2"><g id="레이어_1" data-name="레이어 1"><path class="cls-1" d="M303.16,185.72,189.63,18.55a43.9,43.9,0,0,0-72.53,1.24L7.2,187.26a43.9,43.9,0,0,0,36.7,68H267.51a43.91,43.91,0,0,0,35.65-69.53ZM284.33,220a18.83,18.83,0,0,1-16.82,10.28H43.9A18.89,18.89,0,0,1,28.11,201S138,33.52,138,33.52a18.92,18.92,0,0,1,31-.93L282.67,200.05A19,19,0,0,1,284.33,220Z"/><path class="cls-1" d="M155.71,150a12.5,12.5,0,0,0,12.5-12.5V87.38a12.5,12.5,0,0,0-25,0v50.09A12.5,12.5,0,0,0,155.71,150Z"/><path class="cls-1" d="M155.71,167.88a19.58,19.58,0,1,0,19.58,19.57A19.57,19.57,0,0,0,155.71,167.88Z"/></g></g></svg>