<svg xmlns="http://www.w3.org/2000/svg" viewBox="0 0 43.99 31"><defs><style>.cls-1{fill:#f98a17;}</style></defs><g id="Layer_2" data-name="Layer 2"><g id="레이어_1" data-name="레이어 1"><g id="Folder_2" data-name="Folder 2"><path id="Path_736" data-name="Path 736" class="cls-1" d="M38.09,8.45H11A8.34,8.34,0,0,0,3.12,14L0,22.92v-19A3.91,3.91,0,0,1,3.93,0h11A4,4,0,0,1,18.1,1.56L20.43,5H33.77A4.4,4.4,0,0,1,38.09,8.45Z"/><path id="Path_737" data-name="Path 737" class="cls-1" d="M41.33,11H11a5.66,5.66,0,0,0-5.36,3.78L.89,28.41A2,2,0,0,0,2.12,30.9a2.05,2.05,0,0,0,.65.1H35.4A3.78,3.78,0,0,0,39,28.48l4.86-13.95a2.65,2.65,0,0,0-1.64-3.36A2.94,2.94,0,0,0,41.33,11Z"/></g></g></g></svg>