<svg xmlns="http://www.w3.org/2000/svg" viewBox="0 0 125.41 125.97"><defs><style>.cls-1{fill:#999;}.cls-2{fill:#f98a17;}</style></defs><g id="Layer_2" data-name="Layer 2"><g id="레이어_1" data-name="레이어 1"><path class="cls-1" d="M104.76,65.22h-.94l.06-22.84a42.27,42.27,0,1,0-84.54-.2s0,15-.06,23h-.09A19.09,19.09,0,0,0,5.55,70.79,18.78,18.78,0,0,0,0,84.15a19.15,19.15,0,0,0,19.1,19.2l18.53,0a24.37,24.37,0,0,0,48.59.12l18.44,0a19.17,19.17,0,0,0,.1-38.33ZM61.93,115.86a14.2,14.2,0,0,1-10.1-4.19,14,14,0,0,1-4-8.25l28.22.06A14.28,14.28,0,0,1,61.93,115.86Zm42.76-22.42-85.56-.2a9,9,0,0,1-9-9.06A8.73,8.73,0,0,1,12.69,78a9.07,9.07,0,0,1,6.48-2.63h5.15a5,5,0,0,0,5.05-5l.08-28.09a32.16,32.16,0,1,1,64.32.15l-.08,27.91a5.07,5.07,0,0,0,5.06,5.07h6a9.06,9.06,0,0,1,0,18.11Z"/><circle class="cls-2" cx="101.94" cy="35.25" r="23.46"/></g></g></svg>