<svg xmlns="http://www.w3.org/2000/svg" viewBox="0 0 311.43 311.43"><defs><style>.cls-1{fill:#999;}</style></defs><g id="Layer_2" data-name="Layer 2"><g id="레이어_1" data-name="레이어 1"><path class="cls-1" d="M270.28,0H41.15A41.19,41.19,0,0,0,0,41.14V270.28a41.2,41.2,0,0,0,41.15,41.15H270.28a41.2,41.2,0,0,0,41.15-41.15V41.14A41.19,41.19,0,0,0,270.28,0ZM41.15,25H270.28a16.17,16.17,0,0,1,16.15,16.14V95.2H25V41.14A16.17,16.17,0,0,1,41.15,25ZM270.28,286.43H41.15A16.17,16.17,0,0,1,25,270.28V120.2H286.43V270.28A16.17,16.17,0,0,1,270.28,286.43Z"/><path class="cls-1" d="M99.59,77.53A15.89,15.89,0,1,0,83.7,61.64,15.91,15.91,0,0,0,99.59,77.53Z"/><path class="cls-1" d="M211.84,77.53a15.89,15.89,0,1,0-15.91-15.89A15.91,15.91,0,0,0,211.84,77.53Z"/><path class="cls-1" d="M210.73,150.68a12.5,12.5,0,0,0-17,4.77l-40.35,71.74-37.25-41.38a12.5,12.5,0,0,0-18.58,16.72l48.89,54.33a12.49,12.49,0,0,0,20.19-2.23l48.89-86.92A12.51,12.51,0,0,0,210.73,150.68Z"/></g></g></svg>