<svg xmlns="http://www.w3.org/2000/svg" viewBox="0 0 311.34 225.46"><defs><style>.cls-1{fill:#666;}</style></defs><g id="Layer_2" data-name="Layer 2"><g id="레이어_1" data-name="레이어 1"><path class="cls-1" d="M242.57,86A86.91,86.91,0,0,0,68.76,86a69.76,69.76,0,0,0,1,139.51h171.8a69.76,69.76,0,0,0,1-139.51Zm-1,114.51H69.77a44.78,44.78,0,1,1,9.87-88.41A12.5,12.5,0,0,0,94.72,97.69a61.29,61.29,0,0,1-1-10.73,62,62,0,1,1,123.91,0,61.29,61.29,0,0,1-1,10.73,12.51,12.51,0,0,0,15.09,14.36,44.76,44.76,0,1,1,9.87,88.41Z"/><path class="cls-1" d="M163.34,84.47c-.24-.21-.5-.36-.74-.55s-.6-.49-.93-.7-.76-.42-1.14-.62-.62-.33-.95-.47-.92-.3-1.38-.42c-.3-.08-.58-.19-.89-.25a12.62,12.62,0,0,0-2.37-.24h-.07a12,12,0,0,0-2.32.23c-.32.06-.6.17-.91.25s-.92.25-1.37.42-.63.31-.94.47-.78.39-1.16.62-.59.44-.89.68-.53.35-.77.57l-34,31a12.5,12.5,0,1,0,16.82,18.5L142.43,122V167.7a12.5,12.5,0,0,0,25,0V122l13.13,11.94a12.5,12.5,0,1,0,16.82-18.49Z"/></g></g></svg>