<svg xmlns="http://www.w3.org/2000/svg" viewBox="0 0 311.55 277.89"><defs><style>.cls-1{fill:#666;}</style></defs><g id="Layer_2" data-name="Layer 2"><g id="레이어_1" data-name="레이어 1"><path class="cls-1" d="M195.71,152.39H168.28V125a12.5,12.5,0,0,0-25,0v27.43H115.84a12.5,12.5,0,0,0,0,25h27.44v27.44a12.5,12.5,0,0,0,25,0V177.39h27.43a12.5,12.5,0,1,0,0-25Z"/><path class="cls-1" d="M260.85,52.52h-72L173.28,25.4A50.83,50.83,0,0,0,129.33,0H50.71A50.75,50.75,0,0,0,0,50.7V227.18a50.76,50.76,0,0,0,50.71,50.71H162.77l98.37-.57a50.84,50.84,0,0,0,50.41-50.72V103.23A50.77,50.77,0,0,0,260.85,52.52Zm25.7,174.08A25.79,25.79,0,0,1,261,252.32l-210.28.57A25.73,25.73,0,0,1,25,227.18V50.7A25.73,25.73,0,0,1,50.71,25h78.62a25.8,25.8,0,0,1,22.29,12.87l19.22,33.39a12.5,12.5,0,0,0,10.83,6.26h79.18a25.74,25.74,0,0,1,25.7,25.71Z"/></g></g></svg>