<svg xmlns="http://www.w3.org/2000/svg" viewBox="0 0 44 40.05"><defs><style>.cls-1{fill:#999;}</style></defs><g id="Layer_2" data-name="Layer 2"><g id="레이어_1" data-name="레이어 1"><g id="History"><g id="Group_17" data-name="Group 17"><path id="Path_923" data-name="Path 923" class="cls-1" d="M24,0A20.16,20.16,0,0,0,4.6,14.9c-3,0-3.33.08-3.95.7a2.23,2.23,0,0,0,0,3.15h0l5.12,5.12a2.24,2.24,0,0,0,3.16,0l5.12-5.12a2.22,2.22,0,0,0,0-3.14A2.25,2.25,0,0,0,12.54,15H10.73a14.17,14.17,0,1,1,3,14.86,2.93,2.93,0,0,0-4.23,4.05h0A20,20,0,1,0,24,0Z"/><path id="Path_924" data-name="Path 924" class="cls-1" d="M23.65,9.94a2.55,2.55,0,0,0-2.55,2.54v9.9a2.55,2.55,0,0,0,2.55,2.55A2.47,2.47,0,0,0,25,24.52l5.23-3.36a2.54,2.54,0,0,0-2.75-4.28l-1.31.84V12.48A2.54,2.54,0,0,0,23.65,9.94Z"/></g></g></g></g></svg>