<svg xmlns="http://www.w3.org/2000/svg" viewBox="0 0 43.8 32.01"><defs><style>.cls-1{fill:#f98a17;}</style></defs><g id="Layer_2" data-name="Layer 2"><g id="레이어_1" data-name="레이어 1"><g id="icon-3"><path id="Path_858" data-name="Path 858" class="cls-1" d="M43.07,15.13C42.58,13.8,42,12.8,40.8,12.56c-2-.4-2.28,1.6-5.84,1.61-2.56,0-3.47-1-4.48-1.46a7.74,7.74,0,0,1-.64,1,4.27,4.27,0,0,1,.8.1c3.23.65,4.33,3.62,4.86,5a16.83,16.83,0,0,1,1.14,5c2.68-.22,5.57-1,6.6-3.05a5.22,5.22,0,0,0,.56-2.36A9.48,9.48,0,0,0,43.07,15.13Z"/><path id="Path_859" data-name="Path 859" class="cls-1" d="M31.83,7.81a9.77,9.77,0,0,1-.42,2.84,5.47,5.47,0,0,0,9-4.2,6.22,6.22,0,0,0-.06-.86A5.48,5.48,0,0,0,35.18,1h-.26A5.47,5.47,0,0,0,31.8,2a5.64,5.64,0,0,0-1.18,1.11A9.71,9.71,0,0,1,31.7,6.25,11.58,11.58,0,0,1,31.83,7.81Z"/><path id="Path_860" data-name="Path 860" class="cls-1" d="M13.26,13.75a5,5,0,0,1,.78-.09,9.9,9.9,0,0,1-.63-1c-1,.44-1.9,1.46-4.44,1.47-3.62,0-3.94-2-5.92-1.63a2.26,2.26,0,0,0-1.5,1c-1.63,2.5-2,5-1,7.12,1.19,2.52,4.53,3,6.59,3.16a14.49,14.49,0,0,1,2.57-7.69A5.43,5.43,0,0,1,13.26,13.75Z"/><path id="Path_861" data-name="Path 861" class="cls-1" d="M8.93,11.93a5.49,5.49,0,0,0,3.55-1.3,9.69,9.69,0,0,1-.41-2.83,10,10,0,0,1,1.19-4.72,5.63,5.63,0,0,0-1.32-1.21A5.51,5.51,0,0,0,9.19,1H8.93a5.48,5.48,0,0,0,0,11Z"/><path id="Path_862" data-name="Path 862" class="cls-1" d="M30.24,15.86c-2.79-.57-3.22,2.29-8.25,2.3s-5.56-2.87-8.36-2.32a3.22,3.22,0,0,0-2.11,1.42C9.21,20.83,8.71,24.43,10.1,27.4c2,4.15,8,4.45,10.53,4.57,4.33.22,11.08-.5,13.05-4.4h0c1.38-2.75.7-5.49-.23-8C32.76,17.63,32,16.21,30.24,15.86Z"/><path id="Path_863" data-name="Path 863" class="cls-1" d="M21.94,15.61A7.8,7.8,0,1,0,22.31,0h-.37a7.8,7.8,0,0,0,0,15.6Z"/></g></g></g></svg>