<svg xmlns="http://www.w3.org/2000/svg" viewBox="0 0 43 44"><defs><style>.cls-1{fill:#f98a17;}</style></defs><g id="Layer_2" data-name="Layer 2"><g id="레이어_1" data-name="레이어 1"><g id="Gift"><path id="Path_655" data-name="Path 655" class="cls-1" d="M40.91,10.11H32.53A5.09,5.09,0,0,0,31.59,0a5.26,5.26,0,0,0-3.36,1.21l0,0a4,4,0,0,0-.3.28L21.93,7,16,1.51a4,4,0,0,0-.3-.28l0,0A5.31,5.31,0,0,0,12.28,0a5.09,5.09,0,0,0-.95,10.11H2.09A2.07,2.07,0,0,0,0,12.16v4.17a2.06,2.06,0,0,0,2.09,2.05H18.63V10.2h3.13a1,1,0,0,1,.34,0h2.26v8.18H40.91a2.07,2.07,0,0,0,2.09-2h0V12.16a2.07,2.07,0,0,0-2.09-2.05Zm-11-6.52.05,0,.14-.13h0a2.24,2.24,0,0,1,3,3.34,2.26,2.26,0,0,1-1.53.58H25.82ZM10,5.1a2.28,2.28,0,0,1,2.33-2.22,2.3,2.3,0,0,1,1.42.53h0l.14.13,0,0L18,7.33H12.27A2.26,2.26,0,0,1,10,5.1Z"/><path id="Path_656" data-name="Path 656" class="cls-1" d="M2.15,39.42A4.58,4.58,0,0,0,6.73,44H18.27V21H2.15Z"/><path id="Path_657" data-name="Path 657" class="cls-1" d="M24.72,44H36.26a4.58,4.58,0,0,0,4.58-4.57h0V21H24.72Z"/></g></g></g></svg>