<svg xmlns="http://www.w3.org/2000/svg" viewBox="0 0 44 33"><defs><style>.cls-1{fill:#999;}</style></defs><g id="Layer_2" data-name="Layer 2"><g id="레이어_1" data-name="레이어 1"><g id="Inbound"><path id="Path_159" data-name="Path 159" class="cls-1" d="M44,20.28a2.41,2.41,0,0,0-.17-1L37.56,3A2.59,2.59,0,0,0,35.13,1.3c-5.82,0-6.13-.18-6.13.5,0,4.66-.28,2.67,2.13,3.73,3.2,1.4,1.65-1.07,6.8,13a1.32,1.32,0,0,1-.77,1.71,1.27,1.27,0,0,1-.47.09H30.31a1.69,1.69,0,0,0-1.47.87l-1.79,3.29a1.68,1.68,0,0,1-1.47.88H18a1.69,1.69,0,0,1-1.52-1l-1.45-3.09a1.67,1.67,0,0,0-1.51-1H7.31A1.32,1.32,0,0,1,6,19a1.28,1.28,0,0,1,.09-.48c3.75-10.2,4.11-12.07,5.24-12.4,1.72-.51,1.94-.85,3.21-1a.51.51,0,0,0,.48-.5c0-2.76.15-3.33-.5-3.33H8.87A2.63,2.63,0,0,0,6.43,3L.17,19.27a2.7,2.7,0,0,0-.17,1v7.33A5.37,5.37,0,0,0,5.36,33H38.64A5.37,5.37,0,0,0,44,27.62V20.29Z"/><path id="Path_160" data-name="Path 160" class="cls-1" d="M14.5,11l6.2,7.89a1.68,1.68,0,0,0,2.34.28,1.79,1.79,0,0,0,.27-.28L29.51,11a1.59,1.59,0,0,0-.29-2.24,1.55,1.55,0,0,0-1-.34h-3V1.6A1.6,1.6,0,0,0,23.68,0H20.33a1.6,1.6,0,0,0-1.6,1.59h0V8.44h-3A1.6,1.6,0,0,0,14.5,11Z"/></g></g></g></svg>