<svg xmlns="http://www.w3.org/2000/svg" viewBox="0 0 146.75 133.41"><defs><style>.cls-1{fill:#666;}</style></defs><g id="Layer_2" data-name="Layer 2"><g id="레이어_1" data-name="레이어 1"><path id="Message" class="cls-1" d="M146.75,20.12A20.23,20.23,0,0,0,126.44,0H20.3A20.23,20.23,0,0,0,0,20.12V127.47a5.88,5.88,0,0,0,3.47,5.37,5.8,5.8,0,0,0,2.52.57A6.1,6.1,0,0,0,9.88,132l25.87-21.93h90.69a20.23,20.23,0,0,0,20.31-20.12ZM73.38,79.36H38.63a7.42,7.42,0,0,1-.06-14.84H73.38a7.42,7.42,0,0,1,.07,14.84Zm34.74-31.84H38.63a7.43,7.43,0,0,1-.06-14.85h69.55a7.43,7.43,0,0,1,.07,14.85Z"/></g></g></svg>