<svg xmlns="http://www.w3.org/2000/svg" viewBox="0 0 192.06 139.08"><defs><style>.cls-1{fill:#666;}</style></defs><g id="Layer_2" data-name="Layer 2"><g id="레이어_1" data-name="레이어 1"><path class="cls-1" d="M149.64,53A53.61,53.61,0,0,0,42.42,53,43,43,0,0,0,43,139.08H149A43,43,0,0,0,149.64,53ZM149,123.66H43a27.63,27.63,0,1,1,6.09-54.54,7.72,7.72,0,0,0,9.3-8.86,37.68,37.68,0,0,1-.62-6.61,38.22,38.22,0,1,1,76.44,0,37.74,37.74,0,0,1-.63,6.61,7.72,7.72,0,0,0,9.31,8.86A27.61,27.61,0,1,1,149,123.66Z"/><path class="cls-1" d="M109.3,74.62,101.2,82V53.78a7.72,7.72,0,0,0-15.43,0V82l-8.1-7.37A7.71,7.71,0,0,0,67.29,86l21,19.09c.14.13.3.22.45.35s.37.29.57.42a6.8,6.8,0,0,0,.7.38,6.63,6.63,0,0,0,.6.29,6.13,6.13,0,0,0,.83.26c.19.05.37.12.57.16a7.63,7.63,0,0,0,1.43.15h.09A8.33,8.33,0,0,0,95,107a4.58,4.58,0,0,0,.56-.16,6.27,6.27,0,0,0,.84-.26,13.67,13.67,0,0,0,1.29-.67c.2-.13.39-.28.58-.43s.31-.21.45-.34l21-19.09h0A7.71,7.71,0,1,0,109.3,74.62Z"/></g></g></svg>