<svg xmlns="http://www.w3.org/2000/svg" viewBox="0 0 104.5 78.39"><defs><style>.cls-1{fill:#999;}</style></defs><g id="Layer_2" data-name="Layer 2"><g id="레이어_1" data-name="레이어 1"><g id="Inbound"><path id="Path_159" data-name="Path 159" class="cls-1" d="M104.49,48.18a6.1,6.1,0,0,0-.41-2.43L89.21,7.05a6.2,6.2,0,0,0-5.77-4c-13.82,0-14.56-.43-14.56,1.19,0,11.08-.67,6.36,5.06,8.87,7.6,3.32,3.9-2.54,16.15,30.75A3.15,3.15,0,0,1,88.26,48a3.05,3.05,0,0,1-1.12.21H72a3.93,3.93,0,0,0-3.48,2.07l-4.26,7.82a4,4,0,0,1-3.49,2.08H42.82a4,4,0,0,1-3.6-2.3l-3.46-7.36a3.94,3.94,0,0,0-3.59-2.3H17.35A3.16,3.16,0,0,1,14.21,45a3.09,3.09,0,0,1,.21-1.12c8.91-24.24,9.77-28.67,12.45-29.47,4.07-1.2,4.61-2,7.61-2.24A1.22,1.22,0,0,0,35.62,11c0-6.57.35-7.91-1.19-7.91H21.06a6.2,6.2,0,0,0-5.78,4L.41,45.76A6.51,6.51,0,0,0,0,48.19V65.61A12.77,12.77,0,0,0,12.74,78.39h79A12.77,12.77,0,0,0,104.5,65.61V48.19Z"/><path id="Path_160" data-name="Path 160" class="cls-1" d="M34.44,26.18,49.17,44.92a3.94,3.94,0,0,0,5.54.65,4,4,0,0,0,.65-.65L70.08,26.18a3.79,3.79,0,0,0-.67-5.33,3.87,3.87,0,0,0-2.31-.8H60V3.8A3.8,3.8,0,0,0,56.24,0h-8a3.79,3.79,0,0,0-3.8,3.77V20.05h-7a3.79,3.79,0,0,0-3,6.13Z"/></g></g></g></svg>