<svg xmlns="http://www.w3.org/2000/svg" viewBox="0 0 145.02 141.57"><defs><style>.cls-1{fill:#999;}</style></defs><g id="Layer_2" data-name="Layer 2"><g id="레이어_1" data-name="레이어 1"><g id="Send"><path id="Path_154" data-name="Path 154" class="cls-1" d="M49.32,126.31a17.58,17.58,0,0,1,4.73-13.11c15.54-19.15,30.86-38.48,46.2-57.79C104.4,50.2,99.56,47.14,96,50c-5.36,4.38-51.16,43.58-57.91,49.37a3.15,3.15,0,0,1-3.77.54q-14-5.52-28-10.87a8,8,0,0,1-1.06-15.3C15.32,68.14,123.88,7.25,134,1.5a7.06,7.06,0,0,1,8-.5,7.19,7.19,0,0,1,2.89,7.49c-2.19,22.26-9.18,94.05-11.31,116.83-.58,6.2-3.55,9.55-8.63,9.22a11,11,0,0,1-3.29-.88c-11.74-4.51-23.49-9-35.19-13.65a3.3,3.3,0,0,0-4.15.74C62.38,140,61.2,140.68,58.52,141.36a7.44,7.44,0,0,1-9-5.5,7.93,7.93,0,0,1-.19-1.37C49.11,132,49.32,129.5,49.32,126.31Z"/></g></g></g></svg>