<svg xmlns="http://www.w3.org/2000/svg" viewBox="0 0 123.61 123.62"><defs><style>.cls-1{fill:#666;}</style></defs><g id="Layer_2" data-name="Layer 2"><g id="레이어_1" data-name="레이어 1"><path id="Info" class="cls-1" d="M72.81,36.55a11,11,0,1,1-22,0C50.8,22,72.81,22,72.81,36.55ZM18.09,18.08a61.83,61.83,0,0,0,0,87.4c39,39,105.52,10.86,105.52-43.73,0-55.33-67.12-82.13-105.52-43.67Zm60.1,76.77a3.24,3.24,0,0,1-3.25,3.22H48.66a3.25,3.25,0,0,1-3.23-3.22c0-11-.73-10.86,6.7-10.86V67.11c-7.58,0-6.7-.1-6.7-10.83A3.25,3.25,0,0,1,48.66,53H68.24a3.25,3.25,0,0,1,3.23,3.25V84c7.63,0,6.72.1,6.72,10.86Z"/></g></g></svg>