<svg xmlns="http://www.w3.org/2000/svg" viewBox="0 0 117.04 119.75"><defs><style>.cls-1{fill:#ffb41d;}</style></defs><g id="Layer_2" data-name="Layer 2"><g id="레이어_1" data-name="레이어 1"><g id="Delete-2"><path id="Path_244" data-name="Path 244" class="cls-1" d="M11.22,24.16c-2.17,0-4.06.06-6,0A4.94,4.94,0,0,1,0,19.55c0-.18,0-.36,0-.54a4.91,4.91,0,0,1,4.84-5l.57,0h28V8.82A8.16,8.16,0,0,1,41,.15l.25,0C42.29,0,43.36,0,44.42,0H72.7a26,26,0,0,1,3.64.19,7.94,7.94,0,0,1,7.21,8.34c0,1.75,0,3.51,0,5.55h2.58c8.44,0,16.88,0,25.31,0a5.11,5.11,0,1,1,1,10.17l-.35,0c-2,.09-3.93,0-6.12,0-.46,5.6-.92,11-1.36,16.42-1.68,20.85-3.31,41.69-5,62.52-.82,9.94-7.37,16.31-17.18,16.4q-23.82.23-47.66,0a16.69,16.69,0,0,1-17.26-16.09v-.26C15.68,81.6,14,59.91,12.35,38.23,12,33.65,11.61,29.06,11.22,24.16ZM77.76,66.5c.28-6.6.62-13.19.77-19.79a6.72,6.72,0,0,0-1.09-3.82,4.28,4.28,0,0,0-5.11-1.51,4.63,4.63,0,0,0-3.47,4.13c-.24,3.14-.35,6.28-.51,9.43q-.78,15.77-1.53,31.53a5.22,5.22,0,0,0,4.33,6,5,5,0,0,0,.54.06,5.1,5.1,0,0,0,5.13-5.07c0-.15,0-.31,0-.46q.48-10.23,1-20.48Zm-28.39.2h.05c-.3-6.75-.59-13.51-.92-20.26A5.13,5.13,0,0,0,43.7,41h-.37a5.33,5.33,0,0,0-4.82,5.79.49.49,0,0,1,0,.12c.07,2.22.23,4.44.34,6.67.53,11.2,1,22.4,1.6,33.6.19,3.53,2.35,5.51,5.32,5.27a5.14,5.14,0,0,0,4.46-5.75,1,1,0,0,0,0-.17C50,79.88,49.66,73.29,49.37,66.7ZM43.66,10.25V14H73.35V10.25Z"/></g></g></g></svg>