<svg xmlns="http://www.w3.org/2000/svg" viewBox="0 0 223.14 199.43"><defs><style>.cls-1{fill:#696969;}</style></defs><g id="Layer_2" data-name="Layer 2"><g id="레이어_1" data-name="레이어 1"><g id="History"><g id="Group_17" data-name="Group 17"><path id="Path_923" data-name="Path 923" class="cls-1" d="M123.35,0A100.44,100.44,0,0,0,26.91,74.2c-14.72-.06-20.59.41-23.65,3.49a11.09,11.09,0,0,0,0,15.69h0l29.5,25.47a11.15,11.15,0,0,0,15.73,0L78,93.39a11.08,11.08,0,0,0-7.54-18.92h-13a70.5,70.5,0,1,1,15,74,14.57,14.57,0,0,0-21,20.16h0A99.69,99.69,0,1,0,123.35,0Z"/></g></g></g></g></svg>