<svg xmlns="http://www.w3.org/2000/svg" xmlns:xlink="http://www.w3.org/1999/xlink" viewBox="0 0 129.53 119.6"><defs><style>.cls-1{fill:#eaeef9;}.cls-2{fill:none;stroke:#c9d4e2;stroke-miterlimit:10;stroke-width:2px;stroke-dasharray:4 4;}.cls-3{fill:#dae2eb;}.cls-4{fill:#989fb0;}.cls-5{fill:url(#linear-gradient);}.cls-6{fill:#a9b3c4;}.cls-7{fill:url(#linear-gradient-2);}.cls-8{fill:url(#linear-gradient-3);}.cls-9{fill:url(#linear-gradient-4);}.cls-10{fill:url(#linear-gradient-5);}.cls-11{fill:url(#linear-gradient-6);}.cls-12{fill:url(#linear-gradient-7);}.cls-13{fill:url(#linear-gradient-8);}.cls-14{fill:url(#linear-gradient-9);}</style><linearGradient id="linear-gradient" x1="69.64" y1="-2008.77" x2="69.64" y2="-2044.42" gradientTransform="matrix(1, 0, 0, -1, 0, -1950.47)" gradientUnits="userSpaceOnUse"><stop offset="0" stop-color="#b0bacc"/><stop offset="1" stop-color="#969eae"/></linearGradient><linearGradient id="linear-gradient-2" x1="39.71" y1="-2045.17" x2="42.22" y2="-2010.45" gradientTransform="matrix(1, 0, 0, -1, 0, -1950.47)" gradientUnits="userSpaceOnUse"><stop offset="0.87" stop-color="#7c869b"/><stop offset="1" stop-color="#747d8e"/></linearGradient><linearGradient id="linear-gradient-3" x1="49.7" y1="-2045.89" x2="52.22" y2="-2011.17" xlink:href="#linear-gradient-2"/><linearGradient id="linear-gradient-4" x1="59.77" y1="-2046.62" x2="62.29" y2="-2011.9" xlink:href="#linear-gradient-2"/><linearGradient id="linear-gradient-5" x1="69.34" y1="-2047.32" x2="71.86" y2="-2012.6" xlink:href="#linear-gradient-2"/><linearGradient id="linear-gradient-6" x1="79.39" y1="-2048.04" x2="81.9" y2="-2013.32" xlink:href="#linear-gradient-2"/><linearGradient id="linear-gradient-7" x1="89.32" y1="-2048.76" x2="91.83" y2="-2014.04" xlink:href="#linear-gradient-2"/><linearGradient id="linear-gradient-8" x1="99.1" y1="-2049.47" x2="101.61" y2="-2014.75" xlink:href="#linear-gradient-2"/><linearGradient id="linear-gradient-9" x1="69.75" y1="-2005.01" x2="69.75" y2="-2008.17" gradientTransform="matrix(1, 0, 0, -1, 0, -1950.47)" gradientUnits="userSpaceOnUse"><stop offset="0" stop-color="#ced8ea"/><stop offset="1" stop-color="#adb7c9"/></linearGradient></defs><g id="Layer_2" data-name="Layer 2"><g id="Layer_1-2" data-name="Layer 1"><path class="cls-1" d="M129.53,59.78a59.69,59.69,0,0,1-28.83,51.15c-.72.45-1.44.86-2.16,1.26l6.6-49a1.81,1.81,0,0,0-1.52-2,1.78,1.78,0,0,0-2,1.53l-6.92,51.47c-1.75.81-3.55,1.53-5.35,2.16l5-53.23a1.77,1.77,0,0,0-1.62-1.93,1.74,1.74,0,0,0-1.93,1.62l-5.12,54.71c-1.71.44-3.51.85-5.26,1.16L83.09,63a1.8,1.8,0,1,0-3.59-.17l-2.79,56.36c-1.7.18-3.36.32-5.12.36V62.92a1.8,1.8,0,1,0-3.59,0v56.64c-1.57,0-3.1-.14-4.63-.32L60.59,62.83A1.8,1.8,0,1,0,57,63l2.74,55.74c-1.8-.32-3.55-.68-5.26-1.12L49.32,62.74a1.78,1.78,0,0,0-1.94-1.62,1.8,1.8,0,0,0-1.61,1.93l5,53.45c-1.84-.63-3.59-1.3-5.34-2.06l-7-51.74a1.79,1.79,0,0,0-3.55.49l6.6,49.36c-.85-.45-1.66-.9-2.47-1.39a59.82,59.82,0,1,1,90.5-51.38Z"/><path class="cls-2" d="M6.85,8.71A73,73,0,0,1,37.18,27.45c1.67,1.86,3.53,3.83,4.25,6.2a10.49,10.49,0,0,1-2.31,10.43,10,10,0,0,1-10.45,2.39A6.5,6.5,0,0,1,24,41.2a6,6,0,0,1,4.07-5.77,8.19,8.19,0,0,1,7.22,1,15.92,15.92,0,0,1,5,5.49,32,32,0,0,1,3.93,23.38,31.83,31.83,0,0,1-8.62,15.56"/><path class="cls-3" d="M6.27,2.9c.91.91.63,2.32-.73,3.11C4.22,7,3.23,7.56,2.36,6.8s-.24-2.09.45-3.52C3.57,1.49,5.31,2.09,6.27,2.9Z"/><path class="cls-3" d="M1.81,13A2.17,2.17,0,0,0,4,10.49c-.36-1.64-.54-2.92-1.8-3S.9,8.45.14,10.24C-.35,11.78.49,13,1.81,13Z"/><path class="cls-4" d="M.65,6.61A1.68,1.68,0,0,1,2.43,5.54a2.09,2.09,0,0,1,.8.19c1.48.59,2.38,1.75,2,2.59-.31,1-1.8,1.33-3.13.7l-.88-.5a1.58,1.58,0,0,1-.6-1.91Z"/><path class="cls-5" d="M109.32,56.09l-8.67,54.84c-.72.45-1.43.86-2.15,1.26-1.26.72-2.56,1.35-3.91,2-1.75.81-3.55,1.52-5.35,2.15-1.21.41-2.47.81-3.72,1.17-1.71.45-3.51.85-5.26,1.17-1.21.22-2.42.4-3.64.54-1.7.18-3.36.31-5.12.36-.62,0-1.21,0-1.84,0s-1.17,0-1.75,0c-1.57,0-3.1-.14-4.63-.32-1.21-.13-2.42-.31-3.63-.49-1.8-.32-3.55-.68-5.26-1.12-1.26-.32-2.47-.72-3.73-1.13-1.84-.63-3.59-1.3-5.34-2.06-1.3-.59-2.61-1.22-3.91-1.89-.85-.45-1.66-.9-2.47-1.39l-9-53.5,10.19-1.52h69.17Z"/><path d="M45.41,114.44c-1.3-.59-2.61-1.22-3.91-1.89L34.9,63.14a1.79,1.79,0,1,1,3.55-.49Z"/><path d="M54.44,117.63c-1.26-.32-2.47-.72-3.73-1.13l-5-53.45a1.77,1.77,0,0,1,1.62-1.93,1.74,1.74,0,0,1,1.93,1.62Z"/><path d="M63.33,119.24c-1.21-.13-2.43-.31-3.64-.49L57,63a1.8,1.8,0,1,1,3.59-.18Z"/><path d="M105.1,63.14l-6.6,49.05c-1.26.72-2.56,1.35-3.91,2l7-51.47a1.78,1.78,0,0,1,2-1.53A1.72,1.72,0,0,1,105.1,63.14Z"/><path d="M94.23,63.1l-4.94,53.22c-1.21.41-2.47.81-3.73,1.17l5.12-54.7a1.77,1.77,0,0,1,1.93-1.62A1.74,1.74,0,0,1,94.23,63.1Z"/><path d="M83.05,63l-2.74,55.65c-1.22.22-2.43.4-3.64.54l2.78-56.37a1.8,1.8,0,0,1,3.6.18Z"/><path d="M71.55,62.92v56.64c-.63,0-1.21,0-1.84,0s-1.17,0-1.75,0V62.92a1.8,1.8,0,0,1,1.79-1.8A1.77,1.77,0,0,1,71.55,62.92Z"/><path class="cls-6" d="M108.23,61l-1.11,3.42,10.47,3.4,1.11-3.42Z"/><path class="cls-6" d="M31.16,61,20.7,64.44l1.11,3.42,10.46-3.4Z"/><path class="cls-7" d="M45.41,114.44c-1.3-.59-2.61-1.22-3.91-1.89L34.9,63.14a1.79,1.79,0,1,1,3.55-.49Z"/><path class="cls-8" d="M54.44,117.63c-1.26-.32-2.47-.72-3.73-1.13l-5-53.45a1.77,1.77,0,0,1,1.62-1.93,1.74,1.74,0,0,1,1.93,1.62Z"/><path class="cls-9" d="M63.33,119.24c-1.21-.13-2.43-.31-3.64-.49L57,63a1.8,1.8,0,1,1,3.59-.18Z"/><path class="cls-10" d="M71.55,62.92v56.64c-.63,0-1.21,0-1.84,0s-1.17,0-1.75,0V62.92a1.8,1.8,0,0,1,1.79-1.8A1.77,1.77,0,0,1,71.55,62.92Z"/><path class="cls-11" d="M83.05,63l-2.74,55.65c-1.22.22-2.43.4-3.64.54l2.78-56.37a1.8,1.8,0,0,1,3.6.18Z"/><path class="cls-12" d="M94.23,63.1l-4.94,53.22c-1.21.41-2.47.81-3.73,1.17l5.12-54.7a1.77,1.77,0,0,1,1.93-1.62A1.74,1.74,0,0,1,94.23,63.1Z"/><path class="cls-13" d="M105.1,63.14l-6.6,49.05c-1.26.72-2.56,1.35-3.91,2l7-51.47a1.78,1.78,0,0,1,2-1.53A1.72,1.72,0,0,1,105.1,63.14Z"/><path class="cls-14" d="M109.5,57.66H30a1.53,1.53,0,0,1,0-3h79.5A1.52,1.52,0,0,1,111,56.14,1.54,1.54,0,0,1,109.5,57.66Z"/><path class="cls-3" d="M122.32,32.86c-1.14-.36-1.56-1.63-.87-3.06s1.22-2.57,2.45-2.22c1.06.37,1.15,1.75,1.24,3.3A2,2,0,0,1,122.32,32.86Z"/><path class="cls-3" d="M121.33,22a2.09,2.09,0,0,0-.67,3.23c1.11,1.32,1.78,2.32,3,1.73s.78-1.43.49-3.31A2.06,2.06,0,0,0,121.33,22Z"/><path class="cls-4" d="M124.15,28.78a2.73,2.73,0,0,1-.76.22c-1.37.25-2.61-.28-2.75-1.13s.93-1.7,2.39-1.87a1.75,1.75,0,0,1,1-.06,1.29,1.29,0,0,1,1.19,1.22A1.48,1.48,0,0,1,124.15,28.78Z"/><path class="cls-2" d="M94.83,53.85c-.9-19.29,15.47-25.54,24.51-26.08"/></g></g></svg>