<svg xmlns="http://www.w3.org/2000/svg" viewBox="0 0 322.27 326.91"><defs><style>.cls-1{fill:#696969;}</style></defs><g id="Layer_2" data-name="Layer 2"><g id="레이어_1" data-name="레이어 1"><path class="cls-1" d="M285.38,55.86H216.21V39.62A39.66,39.66,0,0,0,176.59,0h-55.3A39.65,39.65,0,0,0,81.68,39.62V55.86H12.5a12.5,12.5,0,0,0,0,25H285.38a12.5,12.5,0,0,0,0-25Zm-94.17,0H106.68V39.62A14.63,14.63,0,0,1,121.29,25h55.3a14.64,14.64,0,0,1,14.62,14.62Z"/><path class="cls-1" d="M129.24,208V138.46a12.5,12.5,0,0,0-25,0V208a12.5,12.5,0,0,0,25,0Z"/><path class="cls-1" d="M193.64,161V138.46a12.5,12.5,0,0,0-25,0V161a12.5,12.5,0,0,0,25,0Z"/><path class="cls-1" d="M277.79,225.31l-6.74-6.71a5.08,5.08,0,0,0-7.16,0l-26.75,26.72c-5,5.09-11.24-14.25-18.38-7.11L212,244.92l0,0a5.07,5.07,0,0,0,0,7.16l19,19,.08.09a5.64,5.64,0,0,0,8-.09l38.64-38.6h0A5.1,5.1,0,0,0,277.79,225.31Z"/><path class="cls-1" d="M263.13,169.68V118.12a12.5,12.5,0,0,0-25,0V167a80.11,80.11,0,0,0-75.86,79.9c0,2.65.14,5.27.39,7.86H74.37a14.64,14.64,0,0,1-14.63-14.62v-122a12.5,12.5,0,0,0-25,0v122a39.66,39.66,0,0,0,39.63,39.62h95a80,80,0,1,0,93.77-110.09ZM242.27,302.91a56,56,0,1,1,56-56A56.07,56.07,0,0,1,242.27,302.91Z"/></g></g></svg>