<svg xmlns="http://www.w3.org/2000/svg" viewBox="0 0 219.13 179.29"><defs><style>.cls-1{fill:#ffb41d;}</style></defs><g id="Layer_2" data-name="Layer 2"><g id="레이어_1" data-name="레이어 1"><path class="cls-1" d="M110.64,93H79a4.12,4.12,0,0,0,0,8.23h31.69a4.12,4.12,0,0,0,0-8.23Z"/><path class="cls-1" d="M110.64,74.58H79a4.12,4.12,0,0,0,0,8.24h31.69a4.12,4.12,0,0,0,0-8.24Z"/><path class="cls-1" d="M110.64,111.35H79a4.12,4.12,0,0,0,0,8.23h31.69a4.12,4.12,0,0,0,0-8.23Z"/><path class="cls-1" d="M218,45a25.3,25.3,0,0,0-12.38-13.77,25.72,25.72,0,0,0-11.43-2.67H117.53L104.11,9A22.87,22.87,0,0,0,85.88,0H22.64A22.48,22.48,0,0,0,0,22.3V158.58a20.84,20.84,0,0,0,21,20.71H198.11a20.84,20.84,0,0,0,21-20.71C219.07,41.86,219.47,49,218,45Zm-90.9,113.69H102V136.14a2.53,2.53,0,0,0-2.48-2.57H90.13a2.53,2.53,0,0,0-2.48,2.57v22.58H66.53a4,4,0,0,1-4-4.12V65a4,4,0,0,1,4-4.12h1.69V54a4,4,0,0,1,4-4.12h46.31A4,4,0,0,1,122.42,54v6.83h.74a4.05,4.05,0,0,1,4,4.12Zm29.42-4.06a4.05,4.05,0,0,1-4.05,4.06H131.66v-22.2h8.05a4.06,4.06,0,0,0,0-8.11h-8.05v-10h8.05a4.06,4.06,0,0,0,0-8.11h-8.05V86h16.07a4,4,0,0,1,4,4.05v6.73h.75a4.05,4.05,0,0,1,4.05,4.06Z"/></g></g></svg>