<svg xmlns="http://www.w3.org/2000/svg" viewBox="0 0 237.19 177.89"><defs><style>.cls-1{fill:#ffb41d;}</style></defs><g id="Layer_2" data-name="Layer 2"><g id="레이어_1" data-name="레이어 1"><g id="Folder_Export" data-name="Folder Export"><path id="Path_759" data-name="Path 759" class="cls-1" d="M113.53,123.92a69.72,69.72,0,0,1,102.84-60.8c-.06-17.47-.3-16.33-1.08-18.44a25,25,0,0,0-23.52-16.31H116.06L102.79,8.93A22.49,22.49,0,0,0,84.81,0H22.34A22.23,22.23,0,0,0,0,22.12V157.34a20.62,20.62,0,0,0,20.67,20.55H139.72A68.76,68.76,0,0,1,113.53,123.92Z"/><path id="Path_760" data-name="Path 760" class="cls-1" d="M183.74,71a53.42,53.42,0,1,0,.07,0Zm-33,50.93a4.2,4.2,0,0,1,1.69-3.26l.59-.47,23.21-17.33,1.64-1.26a3.62,3.62,0,0,1,5.75,3l-.23,9.73c17.42.41,30.39,12.77,37.8,31.12a2.54,2.54,0,0,1-.77,2.95,2.63,2.63,0,0,1-3.06.14c-13.45-9.36-16.77-13.48-34.44-13.9l-.24,10.17a3.6,3.6,0,0,1-5.88,2.67l-1.58-1.31-22.38-18.42-.56-.45A4.32,4.32,0,0,1,150.74,121.93Z"/></g></g></g></svg>