<svg xmlns="http://www.w3.org/2000/svg" viewBox="0 0 218.35 178.65"><defs><style>.cls-1{fill:#ffb41d;}</style></defs><g id="Layer_2" data-name="Layer 2"><g id="레이어_1" data-name="레이어 1"><path class="cls-1" d="M217.26,44.88a25.18,25.18,0,0,0-12.34-13.73,25.72,25.72,0,0,0-11.39-2.67H117.11L103.74,9A22.74,22.74,0,0,0,85.58,0h-63A22.39,22.39,0,0,0,0,22.22V158a20.76,20.76,0,0,0,20.88,20.63H197.41A20.76,20.76,0,0,0,218.3,158C218.3,41.71,218.7,48.79,217.26,44.88ZM137.53,63.2a15.69,15.69,0,0,1,8.94-2.79c.24,0,.48,0,.73,0a15.68,15.68,0,1,1-10.79,27.68A28.38,28.38,0,0,0,137.6,80a30.49,30.49,0,0,0-.35-4.47,28.38,28.38,0,0,0-3.11-9.13A16.48,16.48,0,0,1,137.53,63.2ZM109.3,57.63l1,0a22.34,22.34,0,0,1-1,44.67v0a22.33,22.33,0,0,1,0-44.66ZM72.06,60.39l.72,0A15.47,15.47,0,0,1,80.66,63a16.05,16.05,0,0,1,3.78,3.48A28.47,28.47,0,0,0,81,80a28.07,28.07,0,0,0,1.17,8.09,15.69,15.69,0,0,1-10.14,3.72h0a15.69,15.69,0,0,1,0-31.38ZM48,116.77c-2.82-6-1.8-13.21,2.88-20.39a6.57,6.57,0,0,1,4.29-2.86c5.67-1.09,6.58,4.73,16.94,4.68,7.28,0,9.82-2.94,12.72-4.21a29.29,29.29,0,0,0,1.79,2.74,16.61,16.61,0,0,0-2.22.27,15.5,15.5,0,0,0-10.16,6.8,41.33,41.33,0,0,0-7.36,22C61,125.4,51.46,124,48,116.77Zm94.85,19.8c-5.61,11.17-25,13.21-37.36,12.6-7.35-.36-24.56-1.2-30.15-13.09-4-8.5-2.53-18.81,4.08-29A9.25,9.25,0,0,1,85.51,103c8-1.56,9.29,6.73,23.91,6.65,14.42,0,15.66-8.21,23.64-6.58,4.9,1,7.2,5.06,9.19,10.5C144.92,120.84,146.85,128.69,142.89,136.57Zm27.39-19.47c-3,5.8-11.24,8.09-18.9,8.72a47.82,47.82,0,0,0-3.27-14.3c-1.52-4.08-4.66-12.58-13.9-14.45a16.11,16.11,0,0,0-2.29-.29A23.91,23.91,0,0,0,133.74,94c2.9,1.31,5.5,4.21,12.82,4.17,10.2,0,11.08-5.76,16.73-4.61,3.47.7,5.11,3.55,6.51,7.35a27.7,27.7,0,0,1,2.07,9.41A14.84,14.84,0,0,1,170.28,117.1Z"/></g></g></svg>