<svg xmlns="http://www.w3.org/2000/svg" viewBox="0 0 280.94 311.25"><defs><style>.cls-1{fill:#666;}</style></defs><g id="Layer_2" data-name="Layer 2"><g id="레이어_1" data-name="레이어 1"><path class="cls-1" d="M268.44,0H78.12a12.5,12.5,0,0,0-12.5,12.5V63.43H12.5A12.5,12.5,0,0,0,0,75.93V298.75a12.5,12.5,0,0,0,12.5,12.5H202.81a12.5,12.5,0,0,0,12.5-12.5V247.82h53.13a12.5,12.5,0,0,0,12.5-12.5V12.5A12.5,12.5,0,0,0,268.44,0ZM190.31,286.25H25V88.43H190.31Zm12.5-222.82H90.62V25H255.94V222.82H215.31V75.93A12.5,12.5,0,0,0,202.81,63.43Z"/><path class="cls-1" d="M111.13,216.35,99.18,203.21h45.73a12.5,12.5,0,0,0,0-25H99.18l11.95-13.13a12.5,12.5,0,1,0-18.49-16.82l-31,34c-.21.24-.36.5-.56.74s-.48.61-.69.93a11.14,11.14,0,0,0-.61,1.12c-.17.33-.34.64-.48,1a13,13,0,0,0-.42,1.34c-.08.31-.2.61-.26.92a13,13,0,0,0-.23,2.33v.15a13.45,13.45,0,0,0,.23,2.28,8.7,8.7,0,0,0,.26.91,11.21,11.21,0,0,0,.42,1.36c.14.33.31.65.48,1a10.15,10.15,0,0,0,.61,1.12c.21.33.46.63.7.94s.34.5.55.73l30.95,34h0a12.5,12.5,0,0,0,18.5-16.83Z"/></g></g></svg>