<svg xmlns="http://www.w3.org/2000/svg" viewBox="0 0 311.34 225.46"><defs><style>.cls-1{fill:#666;}</style></defs><g id="Layer_2" data-name="Layer 2"><g id="레이어_1" data-name="레이어 1"><path class="cls-1" d="M242.57,86A86.91,86.91,0,0,0,68.76,86a69.76,69.76,0,0,0,1,139.51h171.8a69.76,69.76,0,0,0,1-139.51Zm-1,114.51H69.77a44.78,44.78,0,1,1,9.87-88.41A12.5,12.5,0,0,0,94.72,97.69a61.29,61.29,0,0,1-1-10.73,62,62,0,1,1,123.91,0,61.29,61.29,0,0,1-1,10.73,12.51,12.51,0,0,0,15.09,14.36,44.76,44.76,0,1,1,9.87,88.41Z"/><path class="cls-1" d="M177.19,121l-13.15,12V87.18a12.5,12.5,0,0,0-25,0V132.9L125.91,121a12.5,12.5,0,1,0-16.82,18.49l34,31c.24.21.5.36.74.56s.61.48.93.69.74.42,1.12.61.64.34,1,.48.89.29,1.34.42.61.19.92.26a13,13,0,0,0,2.33.23h.15a13.45,13.45,0,0,0,2.28-.23c.32-.07.61-.18.91-.26a13.32,13.32,0,0,0,1.36-.42c.33-.14.65-.31,1-.48a10.15,10.15,0,0,0,1.12-.61c.33-.21.63-.46.94-.7s.5-.34.74-.55l34-30.95h0A12.5,12.5,0,0,0,177.19,121Z"/></g></g></svg>