<svg xmlns="http://www.w3.org/2000/svg" viewBox="0 0 9.29 9.29"><defs><style>.cls-1{fill:#ea1b1b;}.cls-2{fill:#fff;}</style></defs><g id="Layer_2" data-name="Layer 2"><g id="Layer_1-2" data-name="Layer 1"><circle class="cls-1" cx="4.65" cy="4.65" r="4.65"/><path class="cls-2" d="M6.14,6.72a.26.26,0,0,1-.37,0h0L4.65,5.6,3.52,6.72a.26.26,0,0,1-.37,0l-.58-.59a.27.27,0,0,1,0-.37L3.69,4.65,2.57,3.52a.27.27,0,0,1,0-.37h0l.58-.58a.27.27,0,0,1,.37,0h0L4.65,3.69,5.77,2.57a.27.27,0,0,1,.37,0h0l.59.58a.27.27,0,0,1,0,.37L5.6,4.65,6.72,5.77a.26.26,0,0,1,0,.37h0Z"/></g></g></svg>