<svg xmlns="http://www.w3.org/2000/svg" viewBox="0 0 311.58 300"><defs><style>.cls-1{fill:#ffb41d;}</style></defs><g id="Layer_2" data-name="Layer 2"><g id="레이어_1" data-name="레이어 1"><path class="cls-1" d="M311.58,123.47a37.62,37.62,0,0,0-27-36.07L223.08,69.26,186.82,16.35a37.61,37.61,0,0,0-62,0L88.52,69.26,27,87.4a37.6,37.6,0,0,0-19.16,59l39.1,50.82-1.76,64.1c0,.11,0,.93,0,1a37.63,37.63,0,0,0,50.21,35.45l60.44-21.5,60.44,21.5a37.62,37.62,0,0,0,50.21-35.45c0-.12,0-.74,0-.86s-1.35-49.09-1.77-64.28l39.11-50.83A37.78,37.78,0,0,0,311.58,123.47ZM284,131.17l-41.82,54.35a12.5,12.5,0,0,0-2.6,8L241.43,262a12.76,12.76,0,0,1-5.19,10.56,12.61,12.61,0,0,1-11.64,1.69l-64.61-23a12.46,12.46,0,0,0-8.39,0L87,274.27a12.62,12.62,0,0,1-16.84-11.89l1.9-68.9a12.49,12.49,0,0,0-2.59-8L27.63,131.17a12.62,12.62,0,0,1,6.43-19.8L99.85,92a12.5,12.5,0,0,0,6.78-4.92l38.76-56.57a12.61,12.61,0,0,1,20.81,0L205,87.05A12.5,12.5,0,0,0,211.74,92l65.79,19.4a12.62,12.62,0,0,1,6.43,19.8Z"/></g></g></svg>