<svg xmlns="http://www.w3.org/2000/svg" viewBox="0 0 36.68 36.66"><defs><style>.cls-1{fill:#fff;}</style></defs><g id="Layer_2" data-name="Layer 2"><g id="레이어_1" data-name="레이어 1"><path class="cls-1" d="M35.71,10.05,27.46,18.3l8.25,8.24a3.33,3.33,0,0,1,0,4.69l-4.39,4.44a3.34,3.34,0,0,1-4.72,0h0l-8.21-8.25L10.1,35.68a3.32,3.32,0,0,1-4.69,0v0L1,31.26a3.33,3.33,0,0,1,0-4.69l8.26-8.26L1,10.08A3.34,3.34,0,0,1,1,5.36H1C1.15,5.22,5.4,1,5.41,1a3.33,3.33,0,0,1,4.68,0l8.26,8.27L26.6,1a3.33,3.33,0,0,1,4.69,0c2.31,2.28,1.65,1.62,4.43,4.39a3.33,3.33,0,0,1,0,4.67Z"/></g></g></svg>