<svg xmlns="http://www.w3.org/2000/svg" viewBox="0 0 297.88 279.77"><defs><style>.cls-1{fill:#666;}</style></defs><g id="Layer_2" data-name="Layer 2"><g id="레이어_1" data-name="레이어 1"><path class="cls-1" d="M285.38,55.86H216.21V39.62A39.66,39.66,0,0,0,176.59,0h-55.3A39.65,39.65,0,0,0,81.68,39.62V55.86H12.5a12.5,12.5,0,0,0,0,25H285.38a12.5,12.5,0,0,0,0-25Zm-94.17,0H106.68V39.62A14.63,14.63,0,0,1,121.29,25h55.3a14.64,14.64,0,0,1,14.62,14.62Z"/><path class="cls-1" d="M129.24,208V138.46a12.5,12.5,0,0,0-25,0V208a12.5,12.5,0,0,0,25,0Z"/><path class="cls-1" d="M193.64,208V138.46a12.5,12.5,0,0,0-25,0V208a12.5,12.5,0,0,0,25,0Z"/><path class="cls-1" d="M47.24,105.62a12.5,12.5,0,0,0-12.5,12.5v122a39.66,39.66,0,0,0,39.63,39.62H223.52a39.65,39.65,0,0,0,39.61-39.62v-122a12.5,12.5,0,0,0-25,0v122a14.63,14.63,0,0,1-14.61,14.62H74.37a14.64,14.64,0,0,1-14.63-14.62v-122A12.5,12.5,0,0,0,47.24,105.62Z"/></g></g></svg>