<svg xmlns="http://www.w3.org/2000/svg" viewBox="0 0 87.48 79.13"><defs><style>.cls-1{fill:#666;}</style></defs><g id="Layer_2" data-name="Layer 2"><g id="레이어_1" data-name="레이어 1"><path class="cls-1" d="M71.18,46.53a16.26,16.26,0,0,0-13.06,6.58L32.37,42.19a14.48,14.48,0,0,0,0-5.25L58.12,26a16.57,16.57,0,1,0-3-7.09L29.36,29.84a16.31,16.31,0,1,0,0,19.45L55.11,60.2A16.29,16.29,0,1,0,71.18,46.53ZM62.61,15.75a8.21,8.21,0,1,1,0,.55C62.58,16.12,62.6,15.93,62.61,15.75ZM21.86,46.11a8.57,8.57,0,1,1,3-6.54A8.59,8.59,0,0,1,21.86,46.11ZM71.18,71.42a8.6,8.6,0,0,1-8.57-8c0-.18,0-.36,0-.55a8.6,8.6,0,1,1,8.6,8.59Z"/></g></g></svg>