<svg xmlns="http://www.w3.org/2000/svg" viewBox="0 0 292.94 323.25"><defs><style>.cls-1{fill:#9d9d9d;}</style></defs><g id="Layer_2" data-name="Layer 2"><g id="레이어_1" data-name="레이어 1"><path class="cls-1" d="M274.44,0H84.12a18.52,18.52,0,0,0-18.5,18.5V63.43H18.5A18.52,18.52,0,0,0,0,81.93V304.75a18.52,18.52,0,0,0,18.5,18.5H208.81a18.52,18.52,0,0,0,18.5-18.5V259.82h47.13a18.52,18.52,0,0,0,18.5-18.5V18.5A18.52,18.52,0,0,0,274.44,0ZM37,286.25V100.43H190.31V286.25ZM208.81,63.43H102.62V37H255.94V222.82H227.31V81.93A18.52,18.52,0,0,0,208.81,63.43Z"/></g></g></svg>