<svg xmlns="http://www.w3.org/2000/svg" viewBox="0 0 221.97 221.97"><defs><style>.cls-1{fill:#bcbcbc;}</style></defs><g id="Layer_2" data-name="Layer 2"><g id="레이어_1" data-name="레이어 1"><g id="Link_" data-name="Link "><g id="Group_1" data-name="Group 1"><path id="Path_217" data-name="Path 217" class="cls-1" d="M99.13,138.93a12.67,12.67,0,0,1-8.49-3.24c-.77-.68-1.51-1.39-2.25-2.12a53.66,53.66,0,0,1,0-75.8l41.9-41.91a53.61,53.61,0,1,1,76.14,75.5c-.11.11-.22.21-.32.32l-21,20.95a12.77,12.77,0,1,1-18-18.06h0l20.94-20.94a28.08,28.08,0,0,0-39.71-39.72l-41.9,41.91a28.11,28.11,0,0,0,0,39.71c.39.4.78.77,1.17,1.12a12.76,12.76,0,0,1-8.5,22.28Z"/><path id="Path_218" data-name="Path 218" class="cls-1" d="M53.61,222A53.61,53.61,0,0,1,15.7,130.46l22-22A12.76,12.76,0,1,1,56,126.3l-.23.22-22,22a28.09,28.09,0,0,0,39.72,39.72l41.9-41.91a28.11,28.11,0,0,0,0-39.71,12.76,12.76,0,1,1,18-18,53.66,53.66,0,0,1,0,75.82l-41.91,41.9A53.23,53.23,0,0,1,53.61,222Z"/></g></g></g></g></svg>