<svg xmlns="http://www.w3.org/2000/svg" viewBox="0 0 85.76 103.42"><defs><style>.cls-1{fill:#999;}</style></defs><g id="Layer_2" data-name="Layer 2"><g id="레이어_1" data-name="레이어 1"><path class="cls-1" d="M57.28,54.33a29.25,29.25,0,0,0,6.17-4.69A29.08,29.08,0,0,0,42.88,0,29.09,29.09,0,0,0,13.8,29.08,29,29,0,0,0,28.46,54.32,42.77,42.77,0,0,0,0,94.67v4.68a4.06,4.06,0,0,0,4.07,4.07H81.69a4.07,4.07,0,0,0,4.07-4.07V94.67A42.9,42.9,0,0,0,57.28,54.33ZM22,29.08a20.95,20.95,0,1,1,6.13,14.8A20.76,20.76,0,0,1,22,29.08Zm-3.63,41a34.73,34.73,0,0,1,59.3,24.56v.61H8.14v-.61A34.51,34.51,0,0,1,18.32,70.11Z"/></g></g></svg>