<svg xmlns="http://www.w3.org/2000/svg" viewBox="0 0 127.55 127.55"><defs><style>.cls-1{fill:#999;}</style></defs><g id="Layer_2" data-name="Layer 2"><g id="레이어_1" data-name="레이어 1"><path class="cls-1" d="M119.76,7.8a26.68,26.68,0,0,0-37.7,0L66.46,23.4A26.69,26.69,0,0,0,63.08,57l-5.4,5.4a27,27,0,0,0-34,3.39L7.89,81.51A27,27,0,1,0,46,119.67L61.82,103.9a27,27,0,0,0,3.38-34l5.4-5.4a26.67,26.67,0,0,0,33.56-3.39l15.6-15.6A26.68,26.68,0,0,0,119.76,7.8ZM54.29,96.37,38.52,112.14A16.34,16.34,0,0,1,15.41,89L31.18,73.26a16.33,16.33,0,0,1,18.66-3.08L33.9,86.13a5.32,5.32,0,1,0,7.52,7.53l15.95-16A16.31,16.31,0,0,1,54.29,96.37Zm58-58.4L96.63,53.57A16,16,0,0,1,78.4,56.68L90.84,44.24a5.32,5.32,0,0,0-7.52-7.53l-12.4,12.4A16,16,0,0,1,74,30.92l15.6-15.6A16,16,0,0,1,112.24,38Z"/></g></g></svg>