<svg xmlns="http://www.w3.org/2000/svg" viewBox="0 0 273.6 221.88"><defs><style>.cls-1{fill:#999;}</style></defs><g id="Layer_2" data-name="Layer 2"><g id="레이어_1" data-name="레이어 1"><path class="cls-1" d="M62.38,25H261.1a12.5,12.5,0,0,0,0-25H62.38a12.5,12.5,0,1,0,0,25Z"/><path class="cls-1" d="M261.1,98.44H62.38a12.5,12.5,0,1,0,0,25H261.1a12.5,12.5,0,0,0,0-25Z"/><path class="cls-1" d="M261.1,196.88H62.38a12.5,12.5,0,1,0,0,25H261.1a12.5,12.5,0,0,0,0-25Z"/><circle class="cls-1" cx="14.06" cy="12.5" r="12.5"/><circle class="cls-1" cx="13.28" cy="110.94" r="12.5"/><circle class="cls-1" cx="12.5" cy="209.38" r="12.5"/></g></g></svg>