<svg xmlns="http://www.w3.org/2000/svg" viewBox="0 0 77.44 126.2"><defs><style>.cls-1{fill:#c1c1c1;}</style></defs><g id="Layer_2" data-name="Layer 2"><g id="레이어_1" data-name="레이어 1"><path id="Arrow_4" data-name="Arrow 4" class="cls-1" d="M64.21,0a13.32,13.32,0,0,1,9.36,3.81A12.86,12.86,0,0,1,73.79,22a2.28,2.28,0,0,0-.22.22L31.94,63.1,73.57,104a12.86,12.86,0,0,1,.22,18.17l-.22.22a13.4,13.4,0,0,1-18.72,0L3.87,72.3a12.86,12.86,0,0,1-.22-18.17l.22-.22,51-50.1A13.32,13.32,0,0,1,64.21,0Z"/></g></g></svg>