<svg xmlns="http://www.w3.org/2000/svg" viewBox="0 0 60.11 60.1"><defs><style>.cls-1{fill:#999;}</style></defs><g id="Layer_2" data-name="Layer 2"><g id="레이어_1" data-name="레이어 1"><path class="cls-1" d="M59.09,31.9a2.4,2.4,0,0,0-2.2-.3l-3.06,1.08V2.41A2.41,2.41,0,0,0,51.42,0H8.69A2.41,2.41,0,0,0,6.28,2.41V32.74l-3-1.13A2.38,2.38,0,0,0,1,31.89a2.41,2.41,0,0,0-1,2V57.68A2.41,2.41,0,0,0,2.41,60.1H57.7a2.41,2.41,0,0,0,2.41-2.42V33.87A2.41,2.41,0,0,0,59.09,31.9ZM28.59,46.18a2.4,2.4,0,0,0,1.65,0l25.05-8.9v18H4.82V37.34ZM11.11,4.82H49V34.4l-19.56,7L11.11,34.53Z"/><path class="cls-1" d="M37.62,29a2.41,2.41,0,1,0,0-4.82H22.49a2.41,2.41,0,1,0,0,4.82Z"/><path class="cls-1" d="M22.49,17.85H37.62a2.41,2.41,0,1,0,0-4.82H22.49a2.41,2.41,0,1,0,0,4.82Z"/></g></g></svg>