<svg xmlns="http://www.w3.org/2000/svg" viewBox="0 0 58.41 39.83"><defs><style>.cls-1{fill:#ff7800;}</style></defs><g id="Layer_2" data-name="Layer 2"><g id="레이어_1" data-name="레이어 1"><path id="Cloud_3" data-name="Cloud 3" class="cls-1" d="M48.71,17.5a8.28,8.28,0,0,0,.53-2.91A8.65,8.65,0,0,0,36.09,7.37,14.18,14.18,0,0,0,23.61,0,14,14,0,0,0,9.46,13.88h0a11.33,11.33,0,0,0,.07,1.3,12.48,12.48,0,0,0,2.54,24.6v0H47.41v0a11.2,11.2,0,0,0,1.3-22.3ZM36.29,22.76,28,33.9a1.4,1.4,0,0,1-1.13.57,1.45,1.45,0,0,1-.54-.11,1.36,1.36,0,0,1-.85-1.48l.9-6.06-3.19,0A1.46,1.46,0,0,1,22,26.08a1.36,1.36,0,0,1,.1-1.45l8.27-11.16A1.42,1.42,0,0,1,32,13a1.4,1.4,0,0,1,.85,1.49l-1,6.11,3.23-.06a1.42,1.42,0,0,1,.82.25,1.36,1.36,0,0,1,.6.89A1.3,1.3,0,0,1,36.29,22.76Z"/></g></g></svg>