<svg xmlns="http://www.w3.org/2000/svg" viewBox="0 0 20 20"><defs><style>.cls-1{fill:#999;}</style></defs><g id="Layer_2" data-name="Layer 2"><g id="레이어_1" data-name="레이어 1"><path class="cls-1" d="M10,0A10,10,0,1,0,20,10,10,10,0,0,0,10,0Zm0,18.56c-1.34,0-2.75-1.7-3.45-4.48,1.13.1,2.37.17,3.68.17,1,0,2.11,0,3.21-.14C12.74,16.87,11.33,18.56,10,18.56ZM6.27,12.65a17.52,17.52,0,0,1-.18-2.48,16.59,16.59,0,0,1,.24-2.83,37.14,37.14,0,0,1,7.34,0,17.08,17.08,0,0,1,.24,2.87,16.55,16.55,0,0,1-.19,2.52A36.75,36.75,0,0,1,6.27,12.65ZM1.38,10a8.54,8.54,0,0,1,.21-1.91c.69-.15,1.84-.39,3.32-.59a19.07,19.07,0,0,0-.19,2.67,19.28,19.28,0,0,0,.14,2.32c-1.45-.2-2.59-.43-3.27-.58A8.54,8.54,0,0,1,1.38,10ZM10,1.78c1.28,0,2.61,1.55,3.35,4.1a39.13,39.13,0,0,0-6.7,0C7.38,3.34,8.72,1.78,10,1.78Zm5.08,5.7a24.68,24.68,0,0,1,3.35.71,8.72,8.72,0,0,1,0,3.62,25.52,25.52,0,0,1-3.3.7,17.59,17.59,0,0,0,.15-2.34A17.81,17.81,0,0,0,15.08,7.48Zm2.86-.84A29.39,29.39,0,0,0,14.8,6a10,10,0,0,0-2-4.2A8.69,8.69,0,0,1,17.94,6.64ZM7.21,1.84a10.06,10.06,0,0,0-2,4.23c-1.25.15-2.31.34-3.1.5A8.66,8.66,0,0,1,7.21,1.84ZM2.09,13.43c.77.16,1.8.34,3,.49A11.06,11.06,0,0,0,6.81,18,8.65,8.65,0,0,1,2.09,13.43ZM13.19,18a11,11,0,0,0,1.7-4.07,25.55,25.55,0,0,0,3.05-.58A8.66,8.66,0,0,1,13.19,18Z"/></g></g></svg>