<svg xmlns="http://www.w3.org/2000/svg" viewBox="0 0 265.13 83.38"><defs><style>.cls-1{fill:#ffb41d;fill-rule:evenodd;}</style></defs><g id="Layer_2" data-name="Layer 2"><g id="레이어_1" data-name="레이어 1"><path class="cls-1" d="M105.33,50.51a8.82,8.82,0,0,0,8.48-5.45l-4.87-2.23a4,4,0,0,1-3.61,2.71,4.67,4.67,0,0,1,0-9.33,4,4,0,0,1,3.61,2.71l4.87-2.26a8.71,8.71,0,0,0-8.48-5.42c-5.86,0-10.28,3.88-10.28,9.63s4.42,9.64,10.28,9.64Zm27.26-.34V45.26H125.5V31.55h-5.65V50.17Zm15.2.34c5.77,0,10.22-3.91,10.22-9.64s-4.45-9.63-10.22-9.63-10.23,3.9-10.23,9.63,4.46,9.64,10.23,9.64Zm0-5a4.42,4.42,0,0,1-4.48-4.67,4.48,4.48,0,1,1,9,0,4.42,4.42,0,0,1-4.48,4.67Zm25.75,5c6.3,0,9.22-3.38,9.22-8V31.55H177V42.32a3.13,3.13,0,0,1-3.47,3.22c-2.32,0-3.5-1.43-3.5-3.22V31.55H164.3v11c0,4.61,2.94,8,9.24,8Zm24.89-.34c5.85,0,10.22-3.38,10.22-9.32s-4.37-9.3-10.25-9.3h-8.35V50.17Zm0-4.91h-2.69v-8.8h2.72c3,0,4.48,1.87,4.48,4.39a4.31,4.31,0,0,1-4.51,4.41Zm22.2,4.91V31.55h-5.66V50.17Zm25.08,0-7.37-10,7.06-8.65h-6.92l-4.9,7v-7h-5.66V50.17h5.66V45l1-1.4,4.2,6.56Zm19.45,0V45.26h-8.51v-2h8.32V38.3h-8.32V36.46h8.51V31.55H251V50.17Z"/><path class="cls-1" d="M59.38,70c-3.24,1.81-6.16,5.75-7,7-.74,1.06-1.2-1.85,1.53-5.5,3.07-4.11,5.33-4.86,6.41-6,0-.52-6.76-7.44-18.1-3.39s-11.8,13-11.13,13.47a14.13,14.13,0,0,1,5.1,2.62c2.58,2.14,3.81,4.82,3.73,5.15a30.11,30.11,0,0,0-7.63-5.15C28.86,76.81,24.49,77,23.67,77c-.51,0-.75-.78,1.17-1.4s1.95-.87,1.72-1.33a13.92,13.92,0,0,0-6.92-5.48,14.77,14.77,0,0,0-9-.46,43.94,43.94,0,0,1-4.81-6.51A45.49,45.49,0,0,1,1.53,51.9,40.92,40.92,0,0,1,70.1,12.2L52.53,29.73a15.77,15.77,0,1,0-.19,22L67.81,67.15c.21.2-4.08.43-8.43,2.87Z"/></g></g></svg>