<svg xmlns="http://www.w3.org/2000/svg" viewBox="0 0 33.95 33.95"><defs><style>.cls-1{fill:#7dbeff;}</style></defs><g id="Layer_2" data-name="Layer 2"><g id="레이어_1" data-name="레이어 1"><path class="cls-1" d="M17.11,17.37a4.14,4.14,0,0,0-2.93.93,3.2,3.2,0,0,0-1,2.46,3.33,3.33,0,0,0,1,2.5,4.06,4.06,0,0,0,2.93,1,3.84,3.84,0,0,0,2.85-1,3.26,3.26,0,0,0,1-2.51,3.17,3.17,0,0,0-1-2.46A4.06,4.06,0,0,0,17.11,17.37Z"/><path class="cls-1" d="M27.16,0H0V34H34V6.79A6.79,6.79,0,0,0,27.16,0ZM13.34,7.69h7.2V9.8h-7.2ZM23,23a5.32,5.32,0,0,1-1.33,1.73,6.38,6.38,0,0,1-2,1.13,7.67,7.67,0,0,1-2.53.4,8,8,0,0,1-2.6-.4,6.49,6.49,0,0,1-2-1.13A5.46,5.46,0,0,1,11.17,23a5.5,5.5,0,0,1,0-4.45,5.19,5.19,0,0,1,1.31-1.73,5.65,5.65,0,0,1,2-1.12,8.31,8.31,0,0,1,2.61-.39,8.2,8.2,0,0,1,2.6.39,5.92,5.92,0,0,1,2,1.12A4.94,4.94,0,0,1,23,18.54a5.38,5.38,0,0,1,.46,2.22A4.92,4.92,0,0,1,23,23Zm1-9.2H10V11.7H24Z"/></g></g></svg>