<svg xmlns="http://www.w3.org/2000/svg" viewBox="0 0 32.26 32.26"><defs><style>.cls-1{fill:#1b71ff;}</style></defs><g id="Layer_2" data-name="Layer 2"><g id="레이어_1" data-name="레이어 1"><path class="cls-1" d="M25.8,0H0V32.26H32.26V6.45A6.46,6.46,0,0,0,25.8,0ZM6.32,17.48a2.29,2.29,0,0,0,.89.91,2.7,2.7,0,0,0,1.31.32,2.65,2.65,0,0,0,2.13-1.06l1.63,1.47a4.41,4.41,0,0,1-1.65,1.27,5.56,5.56,0,0,1-2.24.43,5.39,5.39,0,0,1-2.55-.6,4.45,4.45,0,0,1-1.77-1.67,4.58,4.58,0,0,1-.64-2.42,4.62,4.62,0,0,1,.64-2.43A4.52,4.52,0,0,1,5.84,12a5.39,5.39,0,0,1,2.55-.6,5.56,5.56,0,0,1,2.24.44,4.29,4.29,0,0,1,1.65,1.26l-1.63,1.48a2.65,2.65,0,0,0-2.13-1.06,2.6,2.6,0,0,0-1.31.32,2.23,2.23,0,0,0-.89.91,3.09,3.09,0,0,0,0,2.7ZM20,19.38a3,3,0,0,1-1.35,1.05,5.58,5.58,0,0,1-2.2.39,8.4,8.4,0,0,1-2.13-.27,5.28,5.28,0,0,1-1.67-.72L13.52,18a5.47,5.47,0,0,0,1.4.64,5.16,5.16,0,0,0,1.58.25c1,0,1.47-.25,1.47-.74a.6.6,0,0,0-.42-.57,7.38,7.38,0,0,0-1.35-.4,11.42,11.42,0,0,1-1.7-.47,2.79,2.79,0,0,1-1.18-.8,2.17,2.17,0,0,1-.49-1.5,2.59,2.59,0,0,1,.45-1.49,3,3,0,0,1,1.35-1,5.52,5.52,0,0,1,2.2-.39,8.05,8.05,0,0,1,1.76.2,5.29,5.29,0,0,1,1.52.59l-.79,1.89a5.28,5.28,0,0,0-2.5-.69,2.1,2.1,0,0,0-1.11.22.69.69,0,0,0-.35.59.58.58,0,0,0,.41.54,7.65,7.65,0,0,0,1.33.38,11.25,11.25,0,0,1,1.71.47,3,3,0,0,1,1.18.8,2.13,2.13,0,0,1,.49,1.49A2.55,2.55,0,0,1,20,19.38Zm8.35,0A3,3,0,0,1,27,20.43a5.5,5.5,0,0,1-2.19.39,8.4,8.4,0,0,1-2.13-.27A5.24,5.24,0,0,1,21,19.83L21.86,18a5.7,5.7,0,0,0,1.41.64,5.14,5.14,0,0,0,1.57.25c1,0,1.47-.25,1.47-.74a.6.6,0,0,0-.42-.57,7.22,7.22,0,0,0-1.34-.4,11.94,11.94,0,0,1-1.71-.47,2.82,2.82,0,0,1-1.17-.8,2.17,2.17,0,0,1-.49-1.5,2.59,2.59,0,0,1,.45-1.49,3,3,0,0,1,1.35-1,5.52,5.52,0,0,1,2.2-.39,7.89,7.89,0,0,1,1.75.2,5.25,5.25,0,0,1,1.53.59l-.79,1.89a5.31,5.31,0,0,0-2.5-.69,2.1,2.1,0,0,0-1.11.22.67.67,0,0,0-.35.59.58.58,0,0,0,.41.54,7.65,7.65,0,0,0,1.33.38,11.25,11.25,0,0,1,1.71.47,2.92,2.92,0,0,1,1.17.8,2.13,2.13,0,0,1,.5,1.49A2.55,2.55,0,0,1,28.38,19.38Z"/></g></g></svg>