<svg xmlns="http://www.w3.org/2000/svg" viewBox="0 0 33.95 33.95"><defs><style>.cls-1{fill:#f24959;}</style></defs><g id="Layer_2" data-name="Layer 2"><g id="레이어_1" data-name="레이어 1"><path class="cls-1" d="M6.87,25.82a1.94,1.94,0,0,0-.34.72A1.89,1.89,0,0,0,7,26.26,8.54,8.54,0,0,0,8.9,24.05,6.57,6.57,0,0,0,6.87,25.82Z"/><path class="cls-1" d="M27.16,0H0V34H34V6.79A6.79,6.79,0,0,0,27.16,0Zm2.43,23.67a2,2,0,0,1-2.36,0A39.5,39.5,0,0,1,24,21.17a39.37,39.37,0,0,0-4.95.16A28.86,28.86,0,0,0,11,23a12.54,12.54,0,0,1-3.19,4.31,2.35,2.35,0,0,1-1.43.59,1.21,1.21,0,0,1-.7-.2,1.4,1.4,0,0,1-.48-1.59C5.52,25,6.87,23.29,10,21.94a27.43,27.43,0,0,0,1.63-4.45c.07-.25.14-.52.22-.82.47-1.71,1.1-4,1.48-6.13-2.1-2.82-1.92-3.84-1.85-4.26a1.7,1.7,0,0,1,1.41-1.36,1.56,1.56,0,0,1,1.51.4c.72.76.78,2.39.37,4.85a51.46,51.46,0,0,0,4.13,4.55c1.82,1.82,3.83,3.65,5.54,5.12,4.05.24,5.23,1.36,5.55,2.14A1.43,1.43,0,0,1,29.59,23.67Z"/><path class="cls-1" d="M13.46,6.26s0,0-.1,0a.37.37,0,0,0-.13,0c-.33.07-.36.19-.37.27a3.6,3.6,0,0,0,.8,2C13.82,6.77,13.53,6.34,13.46,6.26Z"/><path class="cls-1" d="M26.41,21.43c.64.5,1.17.9,1.57,1.16a.66.66,0,0,0,.75,0c.07-.06.06-.09,0-.14S28.46,21.82,26.41,21.43Z"/><path class="cls-1" d="M14.47,11.92c-.31,1.48-.75,3.18-1.27,5.1l-.22.83h0a30.6,30.6,0,0,1-1.17,3.44A32.31,32.31,0,0,1,18.88,20c1.3-.12,2.46-.17,3.48-.19C21,18.55,19.43,17.13,18,15.68S15.36,13,14.47,11.92Z"/></g></g></svg>