<svg xmlns="http://www.w3.org/2000/svg" viewBox="0 0 33.95 33.95"><defs><style>.cls-1{fill:#f24959;}</style></defs><g id="Layer_2" data-name="Layer 2"><g id="레이어_1" data-name="레이어 1"><path class="cls-1" d="M27.16,0H0V34H34V6.79A6.79,6.79,0,0,0,27.16,0ZM5,18a2.31,2.31,0,0,0,.93.93,2.7,2.7,0,0,0,1.37.34,2.59,2.59,0,0,0,2.08-1l.15-.18,1.66,1.53-.13.16A4.31,4.31,0,0,1,9.38,21a5.43,5.43,0,0,1-2.2.43,5.41,5.41,0,0,1-2.58-.62,4.66,4.66,0,0,1-1.82-1.73,5,5,0,0,1,0-5A4.66,4.66,0,0,1,4.6,12.39a5.45,5.45,0,0,1,2.59-.62,5.35,5.35,0,0,1,2.19.43A4.27,4.27,0,0,1,11,13.44l.14.16L9.52,15.13,9.37,15a2.61,2.61,0,0,0-2.08-1,2.81,2.81,0,0,0-1.37.34,2.31,2.31,0,0,0-.93.93A3,3,0,0,0,5,18ZM19.3,21.32l-.79-1.92H14.65l-.79,1.92H11.24l4.19-9.4h2.34l4.2,9.4Zm12.28-2.23a4.44,4.44,0,0,1-1.83,1.65,6.07,6.07,0,0,1-2.68.58H22.78v-9.4h4.29a6.07,6.07,0,0,1,2.68.58,4.5,4.5,0,0,1,1.83,1.65h0a4.69,4.69,0,0,1,.65,2.47A4.69,4.69,0,0,1,31.58,19.09Z"/><path class="cls-1" d="M27,14.07H25.3v5.1H27a2.8,2.8,0,0,0,2-.69,2.39,2.39,0,0,0,.72-1.86A2.4,2.4,0,0,0,29,14.76,2.8,2.8,0,0,0,27,14.07Z"/><polygon class="cls-1" points="15.5 17.38 17.67 17.38 16.59 14.77 15.5 17.38"/></g></g></svg>