<svg xmlns="http://www.w3.org/2000/svg" viewBox="0 0 33.95 33.95"><defs><style>.cls-1{fill:#ff6252;}</style></defs><g id="Layer_2" data-name="Layer 2"><g id="레이어_1" data-name="레이어 1"><path class="cls-1" d="M27.16,0H0V34H34V6.79A6.79,6.79,0,0,0,27.16,0ZM22.25,17.67a4.2,4.2,0,0,1-1.91,1.6,7.08,7.08,0,0,1-2.92.55H14.86v3.49H11.93V10.64h5.49a7.07,7.07,0,0,1,2.92.56,4.31,4.31,0,0,1,1.91,1.59,4.39,4.39,0,0,1,.67,2.45A4.35,4.35,0,0,1,22.25,17.67Z"/><path class="cls-1" d="M17.26,13h-2.4v4.4h2.4a3.09,3.09,0,0,0,2-.57A2,2,0,0,0,20,15.24a2,2,0,0,0-.68-1.64A3.09,3.09,0,0,0,17.26,13Z"/></g></g></svg>