<svg xmlns="http://www.w3.org/2000/svg" viewBox="0 0 33.95 33.95"><defs><style>.cls-1{fill:#2badef;}</style></defs><g id="Layer_2" data-name="Layer 2"><g id="레이어_1" data-name="레이어 1"><path class="cls-1" d="M27.16,0H0V34H34V6.79A6.79,6.79,0,0,0,27.16,0ZM17.45,17.6a4.23,4.23,0,0,1-1.91,1.59,7.16,7.16,0,0,1-2.93.56H10.06v3.49H7.12V10.57h5.49a7,7,0,0,1,2.93.56,4.35,4.35,0,0,1,1.91,1.59,4.45,4.45,0,0,1,.67,2.45A4.43,4.43,0,0,1,17.45,17.6Zm10.06,4.3A3.48,3.48,0,0,1,25.93,23a7.08,7.08,0,0,1-2.47.39,9.39,9.39,0,0,1-2.37-.3,6.22,6.22,0,0,1-1.85-.75l.94-2a6,6,0,0,0,1.57.68,6.84,6.84,0,0,0,1.82.26c1.19,0,1.79-.3,1.79-.89a.62.62,0,0,0-.49-.59,6.5,6.5,0,0,0-1.5-.31,13.93,13.93,0,0,1-2-.42A3.07,3.07,0,0,1,20,18.21a2.38,2.38,0,0,1-.57-1.7A2.63,2.63,0,0,1,20,14.87a3.41,3.41,0,0,1,1.55-1.12,6.81,6.81,0,0,1,2.42-.4,9.56,9.56,0,0,1,2.06.23,5.63,5.63,0,0,1,1.69.63l-.94,2A5.56,5.56,0,0,0,24,15.49a2.87,2.87,0,0,0-1.36.26.73.73,0,0,0-.45.65.64.64,0,0,0,.49.63,8.23,8.23,0,0,0,1.56.34,18.21,18.21,0,0,1,2,.43,3,3,0,0,1,1.33.82,2.37,2.37,0,0,1,.56,1.67A2.53,2.53,0,0,1,27.51,21.9Z"/><path class="cls-1" d="M12.45,13H10.06v4.4h2.39a3.09,3.09,0,0,0,2-.57,2,2,0,0,0,.69-1.62,2,2,0,0,0-.69-1.64A3.09,3.09,0,0,0,12.45,13Z"/></g></g></svg>