<svg xmlns="http://www.w3.org/2000/svg" viewBox="0 0 33.95 33.95"><defs><style>.cls-1{fill:#1b71ff;}</style></defs><g id="Layer_2" data-name="Layer 2"><g id="레이어_1" data-name="레이어 1"><path class="cls-1" d="M27.16,0H0V34H34V6.79A6.79,6.79,0,0,0,27.16,0ZM8.78,20.54H7.13V17.62H3.89v2.92H2.24V13.41H3.89v2.81H7.13V13.41H8.78Zm7.1-5.78H13.59v5.78H11.94V14.76H9.66V13.41h6.22Zm7.37,5.78V16.26l-2.1,3.53H20.4l-2.09-3.43v4.18H16.76V13.41h1.37l2.67,4.43,2.62-4.43h1.36l0,7.13Zm8.47,0H26.49V13.41h1.65V19.2h3.58Z"/></g></g></svg>