<svg xmlns="http://www.w3.org/2000/svg" viewBox="0 0 33.95 33.95"><defs><style>.cls-1{fill:#ffa44a;}</style></defs><g id="Layer_2" data-name="Layer 2"><g id="레이어_1" data-name="레이어 1"><polygon class="cls-1" points="12.3 19.16 16.32 19.16 14.31 14.31 12.3 19.16"/><path class="cls-1" d="M27.16,0H0V34H34V6.79A6.79,6.79,0,0,0,27.16,0ZM18.37,24.1l-1.12-2.71H11.36L10.24,24.1h-3l5.65-12.67h2.9L21.45,24.1Zm7,0H22.57V14.36h2.82Zm-.14-11.56A1.77,1.77,0,0,1,24,13a1.81,1.81,0,0,1-1.27-.45,1.48,1.48,0,0,1-.48-1.12,1.5,1.5,0,0,1,.48-1.13A1.81,1.81,0,0,1,24,9.85a1.85,1.85,0,0,1,1.27.44,1.38,1.38,0,0,1,.49,1.08A1.53,1.53,0,0,1,25.25,12.54Z"/></g></g></svg>