<svg xmlns="http://www.w3.org/2000/svg" viewBox="0 0 139.17 112.19"><defs><style>.cls-1{fill:#666;}</style></defs><g id="Layer_2" data-name="Layer 2"><g id="레이어_1" data-name="레이어 1"><path class="cls-1" d="M129.42,79.65a33.55,33.55,0,0,0-9-6.39,23.5,23.5,0,1,0-29.32,0,33.09,33.09,0,0,0-5.53,3.44A46.74,46.74,0,0,0,63.92,58.63a31.92,31.92,0,1,0-34.94,0,46.54,46.54,0,0,0-29,43v4.93a5.6,5.6,0,0,0,5.59,5.59h128a5.58,5.58,0,0,0,5.58-5.58v-3.36A33.16,33.16,0,0,0,129.42,79.65ZM105.78,42.58A12.34,12.34,0,1,1,93.45,54.92,12.35,12.35,0,0,1,105.78,42.58ZM91.24,86.47A22.21,22.21,0,0,1,127.89,101h-35a46.23,46.23,0,0,0-2.39-14A5,5,0,0,0,91.24,86.47ZM46.47,11.17A20.76,20.76,0,1,1,25.71,31.93,20.62,20.62,0,0,1,46.47,11.17Zm0,55.2A35.33,35.33,0,0,1,81.73,101H11.21A35.32,35.32,0,0,1,46.47,66.37Z"/></g></g></svg>