<svg xmlns="http://www.w3.org/2000/svg" viewBox="0 0 44 44"><defs><style>.cls-1{fill:#999;}</style></defs><g id="Layer_2" data-name="Layer 2"><g id="레이어_1" data-name="레이어 1"><g id="Printer_2" data-name="Printer 2"><path id="Path_508" data-name="Path 508" class="cls-1" d="M38.77,8.44h0V5.61A5.62,5.62,0,0,0,33.14,0H10.86A5.62,5.62,0,0,0,5.24,5.61V8.44h0A5.23,5.23,0,0,0,0,13.67H0V25a5.23,5.23,0,0,0,5.23,5.22h0v8.17A5.62,5.62,0,0,0,10.86,44H33.13a5.63,5.63,0,0,0,5.63-5.61V30.22A5.25,5.25,0,0,0,44,25V13.67A5.23,5.23,0,0,0,38.77,8.44Zm-29-2.83a1.13,1.13,0,0,1,1.13-1.12H33.14a1.12,1.12,0,0,1,1.12,1.12V8.44H9.74ZM34.26,38.39a1.12,1.12,0,0,1-1.12,1.12H10.86a1.12,1.12,0,0,1-1.12-1.12V21.57H34.26Zm5.68-23.91a.79.79,0,0,1-.78.79H35.78a.79.79,0,0,1-.79-.79h0v-.54a.79.79,0,0,1,.79-.79h3.37a.78.78,0,0,1,.79.78h0Z"/><rect id="Rectangle_18" data-name="Rectangle 18" class="cls-1" x="13.63" y="25.81" width="16.42" height="3.18" rx="0.94"/><rect id="Rectangle_19" data-name="Rectangle 19" class="cls-1" x="13.63" y="32.21" width="16.42" height="3.18" rx="0.94"/></g></g></g></svg>