<svg xmlns="http://www.w3.org/2000/svg" viewBox="0 0 40 43.98"><defs><style>.cls-1{fill:#666;}</style></defs><g id="Layer_2" data-name="Layer 2"><g id="레이어_1" data-name="레이어 1"><g id="Database_settings" data-name="Database settings"><path id="Path_23" data-name="Path 23" class="cls-1" d="M1.66,23.29c2.59,2.37,8,4.1,14.33,4.41a13.77,13.77,0,0,1,20.16-6.51c.25-.73.19-.17.19-10.39a3.21,3.21,0,0,0-.14-.92c1,4.42-7.44,8.15-18,8.15C8.17,18,.05,14.7.05,10.59c-.07.33,0-.66,0,9.49A4.43,4.43,0,0,0,1.66,23.29ZM4,17.55A2,2,0,1,1,2.28,19.9a1.84,1.84,0,0,1,0-.33,1.89,1.89,0,0,1,1.72-2Z"/><path id="Path_24" data-name="Path 24" class="cls-1" d="M15.05,30.78c-8.5-.57-15-3.64-15-7.35-.07.33,0-.65,0,9.5a4.45,4.45,0,0,0,1.64,3.2c2.74,2.56,8.66,4.35,15.59,4.46A13.42,13.42,0,0,1,15.05,30.78ZM3.91,34.43a2,2,0,1,1,1.66-2.38,2.19,2.19,0,0,1,0,.36,1.87,1.87,0,0,1-1.69,2Z"/><path id="Path_25" data-name="Path 25" class="cls-1" d="M18.17,14.88c10,0,18.12-3.33,18.12-7.44S28.18,0,18.17,0,.06,3.33.06,7.44,8.17,14.88,18.17,14.88Z"/><path id="Path_26" data-name="Path 26" class="cls-1" d="M40,31.92c0-1.07-.95-1.1-1.8-1.22s-.87-.81-1.23-1.56c-.63-1.33,1.77-2,.53-3.27s-1.93-2.27-2.9-1.56c-.64.48-1.1,1-1.83.63s-1.44-.42-1.56-1.23c-.31-2.1-.44-1.8-3.27-1.8-1.76,0-.55,2.19-1.94,2.68-.77.28-1.32.73-2,.24-1.69-1.26-1.54-1-3.59,1-.74.74-.16,1.35.42,2.13s0,1.19-.24,2c-.49,1.39-2.68.18-2.68,2A18.08,18.08,0,0,0,18,34.36c.34,1,1.15.56,2,.9h0l.09,0h0l.05,0h0a1.09,1.09,0,0,1,.44.55h0a4.09,4.09,0,0,0,.16.42h0c.25.62.5,1,.07,1.55h0c-1.22,1.63-1,1.52,1,3.58,1.22,1.23,1.95-1.14,3.27-.52.51.25,1.3.41,1.48,1h0c.18.4.07,1,.32,1.49.39.78,1.61.57,3,.57,1.76,0,.56-2.19,1.94-2.68,1.6-.58,1.28-.75,2.67.28,1,.75,1.8-.47,2.89-1.56s-1.15-2-.53-3.27a8.58,8.58,0,0,0,.35-.83c.27-.76,1-.74,1.74-.85C40.23,34.89,40,33.67,40,31.92ZM29,36.79a3.85,3.85,0,1,1,3.85-3.85A3.85,3.85,0,0,1,29,36.79Z"/></g></g></g></svg>