<svg xmlns="http://www.w3.org/2000/svg" viewBox="0 0 44 35"><defs><style>.cls-1{fill:#999;}</style></defs><g id="Layer_2" data-name="Layer 2"><g id="레이어_1" data-name="레이어 1"><path id="Window_sidebar" data-name="Window sidebar" class="cls-1" d="M39.26,0H4.75A4.71,4.71,0,0,0,0,4.67H0V30.33A4.71,4.71,0,0,0,4.75,35H39.26A4.7,4.7,0,0,0,44,30.33V4.67A4.7,4.7,0,0,0,39.26,0ZM18,3.24A2.16,2.16,0,1,1,15.8,5.4,2.16,2.16,0,0,1,18,3.24Zm-5.89,0A2.16,2.16,0,1,1,9.92,5.4a2.15,2.15,0,0,1,2.19-2.16Zm-5.88,0A2.16,2.16,0,1,1,4,5.4a2.15,2.15,0,0,1,2.2-2.16ZM4,28.55V12.83a2.44,2.44,0,0,1,2.46-2.42H13a1.39,1.39,0,0,1,1.4,1.38V29.6A1.4,1.4,0,0,1,13,31H6.49A2.44,2.44,0,0,1,4,28.55Zm35.93,0A2.45,2.45,0,0,1,37.5,31H19.8a1.39,1.39,0,0,1-1.4-1.38h0V11.79a1.39,1.39,0,0,1,1.4-1.38H37.5A2.44,2.44,0,0,1,40,12.83h0Z"/></g></g></svg>