<svg xmlns="http://www.w3.org/2000/svg" viewBox="0 0 35.79 35.79"><defs><style>.cls-1{fill:#f98a17;}</style></defs><g id="Layer_2" data-name="Layer 2"><g id="레이어_1" data-name="레이어 1"><path id="Path_300" data-name="Path 300" class="cls-1" d="M30.32,0H5.47A5.47,5.47,0,0,0,0,5.48V30.32a5.47,5.47,0,0,0,5.47,5.47H30.32a5.47,5.47,0,0,0,5.47-5.47V5.48A5.47,5.47,0,0,0,30.32,0ZM26.74,19.34a.92.92,0,0,1-.92.92H20.26v5.56a.93.93,0,0,1-.92.93H16.46a.93.93,0,0,1-.93-.93V20.26H10a.92.92,0,0,1-.92-.92h0V16.46a.92.92,0,0,1,.92-.92h5.56V10a.93.93,0,0,1,.93-.92h2.88a.92.92,0,0,1,.92.92v5.57h5.56a.92.92,0,0,1,.92.92h0Z"/></g></g></svg>