<svg xmlns="http://www.w3.org/2000/svg" viewBox="0 0 311.72 297.7"><defs><style>.cls-1{fill:#666;}</style></defs><g id="Layer_2" data-name="Layer 2"><g id="레이어_1" data-name="레이어 1"><path class="cls-1" d="M229.72,133.71a81.59,81.59,0,0,0-53.21,19.72,107.43,107.43,0,0,0-28.3-16.66,74.68,74.68,0,0,0,12.57-10.06,74.28,74.28,0,1,0-92.34,10A108.41,108.41,0,0,0,0,237.35v11.54a12.5,12.5,0,0,0,12.5,12.5H161.67a82,82,0,1,0,68.05-127.69ZM108.29,25A49.23,49.23,0,1,1,59.06,74.22,48.9,48.9,0,0,1,108.29,25ZM25.05,236.39a83.11,83.11,0,0,1,135.17-64,80.55,80.55,0,0,0-9.75,64ZM229.72,272.7a57,57,0,1,1,57-57A57.07,57.07,0,0,1,229.72,272.7Z"/><path class="cls-1" d="M256.93,188.58a6.59,6.59,0,0,0-9,2.52L226.59,229l-19.7-21.89a6.61,6.61,0,1,0-9.82,8.85l25.85,28.73a6.61,6.61,0,0,0,10.68-1.18l25.85-46A6.6,6.6,0,0,0,256.93,188.58Z"/></g></g></svg>