<svg xmlns="http://www.w3.org/2000/svg" viewBox="0 0 39.99 44"><defs><style>.cls-1{fill:#666;}</style></defs><g id="Layer_2" data-name="Layer 2"><g id="레이어_1" data-name="레이어 1"><g id="Email_read" data-name="Email read"><path id="Path_155" data-name="Path 155" class="cls-1" d="M35.64,21.94V18L38,16.12a1,1,0,0,0,.17-1.38l-.12-.13c-.92-.82-2.26-2-2.43-2.13V8.67a4,4,0,0,0-4-4H26.79L22.62,1a4.05,4.05,0,0,0-5.36,0L13.09,4.68H8.37a4,4,0,0,0-4,4v3.71L2,14.5a1,1,0,0,0-.08,1.39L2,16,4.36,18v3.89L1.77,19.72a1.07,1.07,0,0,0-1.52.15,1.06,1.06,0,0,0-.25.68V39.76A4.25,4.25,0,0,0,4.26,44H35.73A4.27,4.27,0,0,0,40,39.75v-19a1.08,1.08,0,0,0-1.75-.84ZM12.19,34.6l-3.7,3.67a1.49,1.49,0,0,1-1.07.45,1.54,1.54,0,0,1-1.09-.45,1.51,1.51,0,0,1,0-2.14h0L10,32.45a1.52,1.52,0,0,1,2.17,2.14ZM19.88,33a5.25,5.25,0,0,1-3.27-1.15l-9.2-7.53V8.67a1,1,0,0,1,1-1H31.63a1,1,0,0,1,1,1v15.7l-9.44,7.5A5.19,5.19,0,0,1,19.88,33Zm14.06,5.53a1.54,1.54,0,0,1-2.16,0l-4-3.95a1.53,1.53,0,0,1,0-2.15h0a1.52,1.52,0,0,1,2.16,0l4,3.95a1.53,1.53,0,0,1,0,2.15Z"/><rect id="Rectangle_4" data-name="Rectangle 4" class="cls-1" x="11.25" y="12.89" width="17.31" height="2.86" rx="0.66"/><rect id="Rectangle_5" data-name="Rectangle 5" class="cls-1" x="11.25" y="18.77" width="17.31" height="2.86" rx="0.66"/><rect id="Rectangle_6" data-name="Rectangle 6" class="cls-1" x="14.85" y="24.65" width="10.11" height="2.86" rx="0.5"/></g></g></g></svg>