<svg xmlns="http://www.w3.org/2000/svg" viewBox="0 0 37.99 44"><defs><style>.cls-1{fill:#666;}</style></defs><g id="Layer_2" data-name="Layer 2"><g id="레이어_1" data-name="레이어 1"><g id="Stopwatch"><path id="Path_911" data-name="Path 911" class="cls-1" d="M19,6A19,19,0,1,0,38,25,19,19,0,0,0,19,6Zm0,32.82A13.83,13.83,0,1,1,32.82,25,13.83,13.83,0,0,1,19,38.83Z"/><path id="Path_912" data-name="Path 912" class="cls-1" d="M19.14,15.07v8.06a1.32,1.32,0,0,0,1.31,1.32,1.34,1.34,0,0,0,.4-.06l7.68-2.46a1,1,0,0,0,.66-1.28l0-.1a10.93,10.93,0,0,0-8.9-6.49,1,1,0,0,0-1.12.92Z"/><path id="Path_913" data-name="Path 913" class="cls-1" d="M19,4a18.54,18.54,0,0,1,6.39,1.13.66.66,0,0,0,0-.14V2a2,2,0,0,0-2-2h-8.7a2,2,0,0,0-2,2V5a.57.57,0,0,0,0,.13A18.7,18.7,0,0,1,19,4Z"/><path id="Path_914" data-name="Path 914" class="cls-1" d="M3.32,11.66A18.93,18.93,0,0,1,7.44,8L6.27,6.82a1.85,1.85,0,0,0-2.63,0L2.38,8.08a1.85,1.85,0,0,0,0,2.61l0,0Z"/><path id="Path_915" data-name="Path 915" class="cls-1" d="M34.87,11.66l.94-.94a1.85,1.85,0,0,0,0-2.62l0,0L34.56,6.82a1.86,1.86,0,0,0-2.64,0L30.75,8A18.7,18.7,0,0,1,34.87,11.66Z"/></g></g></g></svg>