<svg xmlns="http://www.w3.org/2000/svg" viewBox="0 0 106.1 106.11"><defs><style>.cls-1{fill:#666;}</style></defs><g id="Layer_2" data-name="Layer 2"><g id="레이어_1" data-name="레이어 1"><path id="Edit" class="cls-1" d="M61.69,15.24,12.91,64A13.42,13.42,0,0,0,9.44,70L1.7,97.45.08,103.24a2.29,2.29,0,0,0,.58,2.21,2.34,2.34,0,0,0,2.23.58l5.78-1.62,27.51-7.74a13.38,13.38,0,0,0,5.9-3.45l48.78-48.8ZM37.28,91.75,16.5,97.57A2.31,2.31,0,0,1,14.24,97l-5.11-5.1a2.34,2.34,0,0,1-.59-2.28l5.84-20.76.78-.78a6,6,0,0,1,6,5.88,6.2,6.2,0,0,1-.12,1.29A7.63,7.63,0,0,1,30.77,85,6,6,0,0,1,38,91.06Zm-4-26.21a3.62,3.62,0,0,1-5.11-5.12l28.5-28.49A3.62,3.62,0,1,1,62,36.8a2.72,2.72,0,0,1-.24.24ZM100.06,6.05A20.63,20.63,0,0,0,70.89,6v0L66.64,10.3,95.82,39.48l4.24-4.22a20.65,20.65,0,0,0,0-29.2Z"/></g></g></svg>