<svg xmlns="http://www.w3.org/2000/svg" viewBox="0 0 240.87 180.64"><defs><style>.cls-1{fill:#666;}</style></defs><g id="Layer_2" data-name="Layer 2"><g id="레이어_1" data-name="레이어 1"><path id="Email" class="cls-1" d="M215.15,0H25.72A25.63,25.63,0,0,0,0,25.49V155.21a25.59,25.59,0,0,0,25.72,25.43H215.15a25.59,25.59,0,0,0,25.72-25.43V25.49A25.63,25.63,0,0,0,215.15,0ZM73.45,119.62l-22.3,22.06a9.22,9.22,0,0,1-6.48,2.7,9.35,9.35,0,0,1-6.53-2.7,9.08,9.08,0,0,1,0-12.85l0-.05,22.3-22.07a9.3,9.3,0,0,1,13,0c5.4,0,9.78,1.05,9.78,6.46s-4.38,9.78-9.78,6.45Zm46.3-14a31.55,31.55,0,0,1-19.68-6.88L41,51.15a9,9,0,0,1-1.46-12.67l.12-.14A9.21,9.21,0,0,1,52.62,37l59,47.5a13,13,0,0,0,16.19,0l62.29-50.15a9.28,9.28,0,0,1,12.93,1.38,9,9,0,0,1-1.22,12.71l-.12.1-62.3,50.15a31.54,31.54,0,0,1-19.68,6.87Zm84.65,37.77a9.32,9.32,0,0,1-13,0l-24-23.75a9.08,9.08,0,0,1-.06-12.84l.06-.06a9.26,9.26,0,0,1,13,0l24,23.75a9.08,9.08,0,0,1,.08,12.83l-.09.09Z"/></g></g></svg>