<svg xmlns="http://www.w3.org/2000/svg" viewBox="0 0 43.99 43.98"><defs><style>.cls-1{fill:#666;}</style></defs><g id="Layer_2" data-name="Layer 2"><g id="레이어_1" data-name="레이어 1"><g id="Delete"><path id="Path_29" data-name="Path 29" class="cls-1" d="M14.24,1.41a0,0,0,0,1,0,0C8.33,3.59,5,7.45,2.14,12.52h0A22,22,0,1,0,14.24,1.41ZM32.09,27.13a1.73,1.73,0,0,1,0,2.47h0C27.63,34.07,29,34,22,27,14.9,34.1,16.3,34,11.88,29.6a1.75,1.75,0,0,1,0-2.47h0L17,22l-5.11-5.13a1.74,1.74,0,0,1,0-2.45h0l2.53-2.53a1.74,1.74,0,0,1,2.45,0v0L22,17c7.08-7.08,5.7-7,10.1-2.58a1.74,1.74,0,0,1,0,2.46h0L27,22Z"/></g></g></g></svg>