<svg xmlns="http://www.w3.org/2000/svg" viewBox="0 0 35.79 35.79"><defs><style>.cls-1{fill:#999;}</style></defs><g id="Layer_2" data-name="Layer 2"><g id="레이어_1" data-name="레이어 1"><g id="Remove"><path id="Path_31" data-name="Path 31" class="cls-1" d="M28.67,14.34a1.74,1.74,0,0,1,1.75,1.74h0c0,6.31.91,5.32-9,5.32H7.15a1.73,1.73,0,0,1-1.74-1.73v-3.6a1.72,1.72,0,0,1,1.72-1.74H28.67ZM30.32,0H5.47A5.47,5.47,0,0,0,0,5.48V30.32a5.47,5.47,0,0,0,5.47,5.47H30.32a5.47,5.47,0,0,0,5.47-5.47V5.48A5.47,5.47,0,0,0,30.32,0Z"/></g></g></g></svg>