<svg xmlns="http://www.w3.org/2000/svg" viewBox="0 0 93.98 118.14"><defs><style>.cls-1{fill:#666;}</style></defs><g id="Layer_2" data-name="Layer 2"><g id="레이어_1" data-name="레이어 1"><path id="Lock" class="cls-1" d="M80.73,42.33H79.05V31.57A31.84,31.84,0,0,0,47.54,0,32.42,32.42,0,0,0,14.93,32.24V42.33H13.25A13.16,13.16,0,0,0,0,55.38V88.12a30.26,30.26,0,0,0,30.48,30h33A30.26,30.26,0,0,0,94,88.12V55.38A13.16,13.16,0,0,0,80.73,42.33Zm-52.2,0V32.11A18.63,18.63,0,0,1,46.07,13.43,18.32,18.32,0,0,1,65.42,30.67q0,.45,0,.9V42.33ZM69.87,88c-.58,2-1.66,3.43-.32,5s3.14,3.32,1.35,5.32c-3,3.33-4.57,6.08-7.11,4.37-1.69-1.11-2.94-2.29-4.73-1.33a17.1,17.1,0,0,1-2.07,1c-3.4,1.45-.14,6.84-4.53,7.08-3.9.22-7.47,1.21-8.09-2-.9-4.3-.58-3.4-4.58-5-3.47-1.42-4.89,4.75-8.22,1.79-2.65-2.39-5.32-4-4.74-6.2.31-1.3,1.59-2.29,1.9-3.37v0c.58-1.32-.63-2.95-1.18-4.31-1.45-3.4-6.84-.14-7.06-4.53-.43-7.4-1-7.52,4.07-8.55h0C26.34,77,26.49,75.9,27,74.29c.07-.2.32-.87.41-1.06v0a3,3,0,0,0,.22-1.07,2.37,2.37,0,0,0-.1-.7.88.88,0,0,0-.05-.15v0a1.17,1.17,0,0,0-.09-.24l0,0c-1-2.07-3.25-2.68-2.26-5.08a43.15,43.15,0,0,1,4-4.75c3-3.35,5.08,2.63,8.36.84,1.83-1,3.59-1.25,3.78-3.32.22-2.46.17-4.58,2.82-4.75,7.35-.4,7.47-1.15,8.56,4.1.38,2.05,2.19,2.12,4.11,2.89,3.45,1.42,4.87-4.77,8.22-1.78,5.35,4.77,6.1,4.43,3.13,8.94-1.15,1.71.07,3,.87,4.94s2.51,1.73,4.57,1.92c3,.27,2.57,3.33,2.82,7.84s-5.45,1.7-6.51,5.29Z"/><path id="Path_43" data-name="Path 43" class="cls-1" d="M39.75,76.44a9.63,9.63,0,1,0,13.6-.75h0A9.64,9.64,0,0,0,39.75,76.44Z"/></g></g></svg>