<svg xmlns="http://www.w3.org/2000/svg" viewBox="0 0 206.98 151.26"><defs><style>.cls-1{fill:#68768c;}</style></defs><g id="Layer_2" data-name="Layer 2"><g id="레이어_1" data-name="레이어 1"><g id="icon-3"><path id="Path_858" data-name="Path 858" class="cls-1" d="M203.56,71.48c-2.32-6.28-5-11-10.74-12.14C183.49,57.45,182,66.9,165.19,67c-12.07.06-16.37-4.73-21.14-6.89a43.36,43.36,0,0,1-3,4.56,25.19,25.19,0,0,1,3.78.47c15.26,3.1,20.45,17.12,22.94,23.85a79,79,0,0,1,5.41,23.61c12.64-1,26.31-4.82,31.19-14.4A24.36,24.36,0,0,0,207,87,45.64,45.64,0,0,0,203.56,71.48Z"/><path id="Path_859" data-name="Path 859" class="cls-1" d="M150.41,36.9a47.05,47.05,0,0,1-2,13.44,25.89,25.89,0,0,0,42.49-19.85,26.47,26.47,0,0,0-.31-4.07A25.87,25.87,0,0,0,166.26,4.64c-.41,0-.81,0-1.21,0A25.91,25.91,0,0,0,150.3,9.2a26.78,26.78,0,0,0-5.59,5.25,47,47,0,0,1,5.12,15.07A49.28,49.28,0,0,1,150.41,36.9Z"/><path id="Path_860" data-name="Path 860" class="cls-1" d="M62.66,65a26.62,26.62,0,0,1,3.67-.43A46.09,46.09,0,0,1,63.38,60c-4.79,2.08-9,6.89-21,6.93-17.1.09-18.61-9.51-28-7.72A10.83,10.83,0,0,0,7.33,64C-.39,75.82-2.08,87.78,2.58,97.63,8.22,109.54,24,111.87,33.75,112.56A68.19,68.19,0,0,1,45.89,76.21,25.7,25.7,0,0,1,62.66,65Z"/><path id="Path_861" data-name="Path 861" class="cls-1" d="M42.22,56.37A25.82,25.82,0,0,0,59,50.23,46.08,46.08,0,0,1,57,36.88a46.91,46.91,0,0,1,5.64-22.32,26.83,26.83,0,0,0-6.24-5.74,25.57,25.57,0,0,0-13-4.21c-.39,0-.81-.05-1.2-.05a25.9,25.9,0,0,0,0,51.8Z"/><path id="Path_862" data-name="Path 862" class="cls-1" d="M142.92,75c-13.18-2.7-15.22,10.8-39,10.87-24.13.13-26.26-13.56-39.47-11a15.25,15.25,0,0,0-10,6.72c-10.92,16.89-13.3,33.91-6.73,47.93,9.22,19.63,37.63,21,49.76,21.61,20.47,1,52.4-2.36,61.67-20.79h0c6.52-13,3.35-26-1.06-38C154.8,83.31,151,76.61,142.92,75Z"/><path id="Path_863" data-name="Path 863" class="cls-1" d="M103.7,73.77A36.88,36.88,0,0,0,105.42,0c-.56,0-1.14,0-1.72,0a36.86,36.86,0,0,0,0,73.72Z"/></g></g></g></svg>